<?xml version="1.0" encoding="UTF-8"?>
<svg xmlns="http://www.w3.org/2000/svg" width="36" height="40" viewBox="0 0 36 40" fill="none">
  <path d="M34.6654 30V31.3333C34.6654 32.4379 33.7699 33.3333 32.6654 33.3333H3.33203C2.22746 33.3333 1.33203 32.4379 1.33203 31.3333V30H34.6654Z" fill="#FDFDF9"></path>
  <path d="M32.666 30V31.3333C32.666 32.4379 31.7706 33.3333 30.666 33.3333H32.666C33.7706 33.3333 34.666 32.4379 34.666 31.3333V30H32.666Z" fill="#FF6F59" fill-opacity="0.6"></path>
  <path d="M34.6654 8V30H1.33203V8C1.33203 6.89543 2.22746 6 3.33203 6H32.6654C33.7699 6 34.6654 6.89543 34.6654 8Z" fill="#FDFDF9"></path>
  <path d="M32.666 6H30.666C31.7706 6 32.666 6.89543 32.666 8V30H34.666V8C34.666 6.89543 33.7706 6 32.666 6Z" fill="#FF6F59" fill-opacity="0.6"></path>
  <path d="M23.998 36.6615H11.998L13.3314 33.3281H22.6647L23.998 36.6615Z" fill="#FF6F59" fill-opacity="0.6"></path>
  <path d="M27.3327 37.9974C27.3272 38.7315 26.7335 39.3253 25.9993 39.3307H9.99935C9.26388 39.3285 8.66821 38.7329 8.66602 37.9974C8.67146 37.2633 9.26524 36.6695 9.99935 36.6641H25.9993C26.7348 36.6663 27.3305 37.2619 27.3327 37.9974Z" fill="#FDFDF9"></path>
  <path d="M25.998 36.6641H23.998C24.7335 36.6663 25.3292 37.2619 25.3314 37.9974C25.3259 38.7315 24.7322 39.3253 23.998 39.3307H25.998C26.7322 39.3253 27.3259 38.7315 27.3314 37.9974C27.3292 37.2619 26.7335 36.6663 25.998 36.6641Z" fill="#FF6F59" fill-opacity="0.6"></path>
  <path d="M30.9727 8.59743L27.0394 10.6641L18.3127 15.2508C18.1174 15.3575 17.8813 15.3575 17.686 15.2508L8.95935 10.6641L5.02602 8.59743C4.80443 8.47925 4.66602 8.24857 4.66602 7.99743C4.66602 7.7463 4.80443 7.51561 5.02602 7.39744L17.686 0.744101C17.8813 0.637383 18.1174 0.637383 18.3127 0.744101L30.9727 7.39744C31.1943 7.51561 31.3327 7.7463 31.3327 7.99743C31.3327 8.24857 31.1943 8.47925 30.9727 8.59743Z" fill="#FDFDF9"></path>
  <path d="M30.9727 13.9307L27.0394 15.9974L18.3127 20.5841C18.1174 20.6908 17.8813 20.6908 17.686 20.5841L8.95935 15.9974L5.02602 13.9307C4.80443 13.8125 4.66602 13.5819 4.66602 13.3307C4.66602 13.0796 4.80443 12.8489 5.02602 12.7307L8.95935 10.6641L17.686 15.2507C17.8813 15.3574 18.1174 15.3574 18.3127 15.2507L27.0394 10.6641L30.9727 12.7307C31.1943 12.8489 31.3327 13.0796 31.3327 13.3307C31.3327 13.5819 31.1943 13.8125 30.9727 13.9307Z" fill="#FF6F59" fill-opacity="0.6"></path>
  <path d="M30.9727 19.2667L18.3127 25.92C18.1174 26.0267 17.8813 26.0267 17.686 25.92L5.02602 19.2667C4.80443 19.1485 4.66602 18.9178 4.66602 18.6667C4.66602 18.4155 4.80443 18.1848 5.02602 18.0667L8.95935 16L17.686 20.5867C17.8813 20.6934 18.1174 20.6934 18.3127 20.5867L27.0394 16L30.9727 18.0667C31.1943 18.1848 31.3327 18.4155 31.3327 18.6667C31.3327 18.9178 31.1943 19.1485 30.9727 19.2667Z" fill="#FF6F59" fill-opacity="0.6"></path>
  <path d="M9.99935 39.3307H11.9993C11.2639 39.3285 10.6682 38.7329 10.666 37.9974C10.6715 37.2633 11.2652 36.6695 11.9993 36.6641H9.99935C9.26524 36.6695 8.67146 37.2633 8.66602 37.9974C8.66821 38.7329 9.26388 39.3285 9.99935 39.3307Z" fill="white"></path>
  <path d="M1.33203 8V31.3333C1.33203 32.4379 2.22746 33.3333 3.33203 33.3333H5.33203C4.22746 33.3333 3.33203 32.4379 3.33203 31.3333V8C3.33203 6.89543 4.22746 6 5.33203 6H3.33203C2.22746 6 1.33203 6.89543 1.33203 8Z" fill="white"></path>
  <path d="M15.3314 33.3359H13.3314L11.998 36.6693H13.998L15.3314 33.3359Z" fill="white"></path>
  <path d="M0.666016 8H1.99935V13.3333H0.666016V8Z" fill="white"></path>
  <path d="M0.666016 31.3332C0.666016 32.8059 1.85992 33.9998 3.33268 33.9998H12.348L11.548 35.9998H9.99935C8.89478 35.9998 7.99935 36.8953 7.99935 37.9998C7.99935 39.1044 8.89478 39.9998 9.99935 39.9998H25.9993C27.1039 39.9998 27.9993 39.1044 27.9993 37.9998C27.9993 36.8953 27.1039 35.9998 25.9993 35.9998H24.4507L23.6507 33.9998H32.666C34.1388 33.9998 35.3327 32.8059 35.3327 31.3332V7.99984C35.3327 6.52708 34.1388 5.33317 32.666 5.33317H28.4707L18.6207 0.152507C18.2309 -0.0508357 17.7664 -0.0508357 17.3767 0.152507L7.52802 5.33317H3.33268C1.85992 5.33317 0.666016 6.52708 0.666016 7.99984C0.666016 8.36803 0.964492 8.66651 1.33268 8.66651C1.70087 8.66651 1.99935 8.36803 1.99935 7.99984C1.99935 7.26346 2.5963 6.66651 3.33268 6.66651H4.99268L4.71535 6.81251C4.27507 7.04497 3.99957 7.50197 3.99957 7.99984C3.99957 8.49772 4.27507 8.95472 4.71535 9.18717L7.52668 10.6665L4.71402 12.1445C4.27369 12.3781 3.99838 12.8357 3.99838 13.3342C3.99838 13.8326 4.27369 14.2903 4.71402 14.5238L7.52602 15.9998L4.71402 17.4772C4.27369 17.7107 3.99838 18.1684 3.99838 18.6668C3.99838 19.1653 4.27369 19.6229 4.71402 19.8565L17.3727 26.5078C17.7624 26.7198 18.233 26.7198 18.6227 26.5078L31.2847 19.8538C31.725 19.6201 32.0002 19.1623 32.0002 18.6638C32.0002 18.1654 31.725 17.7076 31.2847 17.4738L28.4733 15.9998L31.2847 14.5225C31.725 14.2887 32.0002 13.831 32.0002 13.3325C32.0002 12.834 31.725 12.3763 31.2847 12.1425L28.472 10.6665L31.2833 9.18784C31.7236 8.95538 31.9991 8.49838 31.9991 8.00051C31.9991 7.50263 31.7236 7.04563 31.2833 6.81317L31.006 6.66651H32.666C33.4024 6.66651 33.9994 7.26346 33.9994 7.99984V29.3332H1.99935V13.3332C1.99935 12.965 1.70087 12.6665 1.33268 12.6665C0.964492 12.6665 0.666016 12.965 0.666016 13.3332V31.3332ZM30.666 18.6772L17.9993 25.3298L5.33935 18.6565L8.95935 16.7532L17.3727 21.1745C17.7624 21.3865 18.233 21.3865 18.6227 21.1745L27.038 16.7518L30.666 18.6772ZM30.666 13.3438L17.9993 19.9998L5.33935 13.3265L8.96335 11.4232L17.38 15.8498C17.7696 16.0539 18.2344 16.0539 18.624 15.8498L27.0394 11.4238L30.666 13.3438ZM17.9993 14.6665L5.33668 7.99184L17.9993 1.33317L30.662 8.00784L17.9993 14.6665ZM26.666 37.9998C26.666 38.368 26.3675 38.6665 25.9993 38.6665H9.99935C9.63116 38.6665 9.33268 38.368 9.33268 37.9998C9.33268 37.6317 9.63116 37.3332 9.99935 37.3332H25.9993C26.3675 37.3332 26.666 37.6317 26.666 37.9998ZM23.0147 35.9998H12.984L13.784 33.9998H22.2147L23.0147 35.9998ZM33.9994 30.6665V31.3332C33.9994 32.0696 33.4024 32.6665 32.666 32.6665H3.33268C2.5963 32.6665 1.99935 32.0696 1.99935 31.3332V30.6665H33.9994Z" fill="#475853"></path>
  <path d="M1.33268 11.3333C1.70087 11.3333 1.99935 11.0349 1.99935 10.6667C1.99935 10.2985 1.70087 10 1.33268 10C0.964492 10 0.666016 10.2985 0.666016 10.6667C0.666016 11.0349 0.964492 11.3333 1.33268 11.3333Z" fill="#475853"></path>
  <path d="M15.1372 6.19519C14.8769 5.93494 14.4549 5.93494 14.1945 6.19519L12.8612 7.52852C12.601 7.78886 12.601 8.21086 12.8612 8.47119L14.1945 9.80452C14.4561 10.0572 14.8719 10.0536 15.1291 9.7964C15.3862 9.53925 15.3899 9.12344 15.1372 8.86186L14.2752 7.99986L15.1372 7.13786C15.3975 6.87752 15.3975 6.45552 15.1372 6.19519Z" fill="#475853"></path>
  <path d="M20.8612 9.80429C21.1215 10.0645 21.5435 10.0645 21.8039 9.80429L23.1372 8.47095C23.3975 8.21062 23.3975 7.78862 23.1372 7.52829L21.8039 6.19495C21.5423 5.94231 21.1265 5.94592 20.8693 6.20307C20.6122 6.46023 20.6086 6.87603 20.8612 7.13762L21.7232 7.99962L20.8612 8.86162C20.601 9.12195 20.601 9.54395 20.8612 9.80429Z" fill="#475853"></path>
  <path d="M17.0351 9.93042C17.1933 10.0095 17.3765 10.0225 17.5443 9.96649C17.7121 9.91047 17.8507 9.79006 17.9297 9.63176L19.2631 6.96509C19.4276 6.63556 19.2939 6.23501 18.9644 6.07042C18.6349 5.90584 18.2343 6.03956 18.0697 6.36909L16.7364 9.03576C16.6573 9.19399 16.6443 9.37718 16.7003 9.54498C16.7563 9.71279 16.8768 9.85145 17.0351 9.93042Z" fill="#475853"></path>
</svg>
