<?xml version="1.0" encoding="UTF-8"?>
<svg xmlns="http://www.w3.org/2000/svg" width="40" height="40" viewBox="0 0 40 40" fill="none">
  <g clip-path="url(#clip0_2176_1675)">
    <path d="M3.99935 35.9974V1.9974C3.99935 1.26102 3.4024 0.664062 2.66602 0.664062H1.99935C1.26297 0.664062 0.666016 1.26102 0.666016 1.9974V37.9974C0.666016 38.7338 1.26297 39.3307 1.99935 39.3307H37.9994C38.7357 39.3307 39.3327 38.7338 39.3327 37.9974V37.3307C39.3327 36.5943 38.7357 35.9974 37.9994 35.9974H3.99935Z" fill="#FF6F59" fill-opacity="0.6"></path>
    <path d="M38 36H36C36.7364 36 37.3333 36.597 37.3333 37.3333V38C37.3333 38.7364 36.7364 39.3333 36 39.3333H38C38.7364 39.3333 39.3333 38.7364 39.3333 38V37.3333C39.3333 36.597 38.7364 36 38 36Z" fill="#FF6F59" fill-opacity="0.6"></path>
    <path d="M10.9993 25.3281C13.3926 25.3281 15.3327 24.4327 15.3327 23.3281C15.3327 22.2236 13.3926 21.3281 10.9993 21.3281C8.60612 21.3281 6.66602 22.2236 6.66602 23.3281C6.66602 24.4327 8.60612 25.3281 10.9993 25.3281Z" fill="#FDFDF9"></path>
    <path d="M11 21.3281C10.6659 21.3286 10.3321 21.3471 10 21.3835C11.91 21.5921 13.3333 22.3835 13.3333 23.3281C13.3333 24.2728 11.91 25.0615 10 25.2728C10.3321 25.3092 10.6659 25.3276 11 25.3281C13.3933 25.3281 15.3333 24.4348 15.3333 23.3281C15.3333 22.2215 13.3933 21.3281 11 21.3281Z" fill="#FF6F59" fill-opacity="0.6"></path>
    <path d="M15.3327 28.6641V31.3307C15.3327 32.4374 13.3927 33.3307 10.9993 33.3307C8.60602 33.3307 6.66602 32.4374 6.66602 31.3307V28.6641C6.66602 29.1774 7.08602 29.6441 7.77268 29.9974C8.78258 30.465 9.88681 30.6932 10.9993 30.6641C12.1119 30.6932 13.2161 30.465 14.226 29.9974C14.9127 29.6441 15.3327 29.1774 15.3327 28.6641Z" fill="#FF6F59" fill-opacity="0.6"></path>
    <path d="M15.3327 26V28.6667C15.3327 29.18 14.9127 29.6467 14.226 30C13.2161 30.4676 12.1119 30.6958 10.9993 30.6667C9.88681 30.6958 8.78258 30.4676 7.77268 30C7.08602 29.6467 6.66602 29.18 6.66602 28.6667V26C6.66602 26.5133 7.08602 26.98 7.77268 27.3333C8.78258 27.801 9.88681 28.0291 10.9993 28C12.1119 28.0291 13.2161 27.801 14.226 27.3333C14.9127 26.98 15.3327 26.5133 15.3327 26Z" fill="#FDFDF9"></path>
    <path d="M15.3327 23.3281V25.9948C15.3327 26.5081 14.9127 26.9748 14.226 27.3281C13.2161 27.7958 12.1119 28.0239 10.9993 27.9948C9.88681 28.0239 8.78258 27.7958 7.77268 27.3281C7.08602 26.9748 6.66602 26.5081 6.66602 25.9948V23.3281C6.66602 24.4348 8.60602 25.3281 10.9993 25.3281C13.3927 25.3281 15.3327 24.4348 15.3327 23.3281Z" fill="#FF6F59" fill-opacity="0.6"></path>
    <path d="M26.6667 23.3281V25.9948C26.6667 26.5081 26.2467 26.9748 25.56 27.3281C24.5501 27.7958 23.4459 28.0239 22.3333 27.9948C21.2208 28.0239 20.1166 27.7958 19.1067 27.3281C18.42 26.9748 18 26.5081 18 25.9948V23.3281C18 24.4348 19.94 25.3281 22.3333 25.3281C24.7267 25.3281 26.6667 24.4348 26.6667 23.3281Z" fill="#FF6F59" fill-opacity="0.6"></path>
    <path d="M26.6667 26V28.6667C26.6667 29.18 26.2467 29.6467 25.56 30C24.5501 30.4676 23.4459 30.6958 22.3333 30.6667C21.2208 30.6958 20.1166 30.4676 19.1067 30C18.42 29.6467 18 29.18 18 28.6667V26C18 26.5133 18.42 26.98 19.1067 27.3333C20.1166 27.801 21.2208 28.0291 22.3333 28C23.4459 28.0291 24.5501 27.801 25.56 27.3333C26.2467 26.98 26.6667 26.5133 26.6667 26Z" fill="#FDFDF9"></path>
    <path d="M26.6667 28.6641V31.3307C26.6667 32.4374 24.7267 33.3307 22.3333 33.3307C19.94 33.3307 18 32.4374 18 31.3307V28.6641C18 29.1774 18.42 29.6441 19.1067 29.9974C20.1166 30.465 21.2208 30.6932 22.3333 30.6641C23.4459 30.6932 24.5501 30.465 25.56 29.9974C26.2467 29.6441 26.6667 29.1774 26.6667 28.6641Z" fill="#FF6F59" fill-opacity="0.6"></path>
    <path d="M22.3333 17.3281C24.7266 17.3281 26.6667 16.4327 26.6667 15.3281C26.6667 14.2236 24.7266 13.3281 22.3333 13.3281C19.9401 13.3281 18 14.2236 18 15.3281C18 16.4327 19.9401 17.3281 22.3333 17.3281Z" fill="#FDFDF9"></path>
    <path d="M22.332 13.3281C21.9979 13.3286 21.6641 13.3471 21.332 13.3835C23.242 13.5921 24.6654 14.3835 24.6654 15.3281C24.6654 16.2728 23.242 17.0615 21.332 17.2728C21.6641 17.3092 21.9979 17.3276 22.332 17.3281C24.7254 17.3281 26.6654 16.4348 26.6654 15.3281C26.6654 14.2215 24.7254 13.3281 22.332 13.3281Z" fill="#FF6F59" fill-opacity="0.6"></path>
    <path d="M26.6667 15.3281V17.9948C26.6667 18.5081 26.2467 18.9748 25.56 19.3281C24.5501 19.7958 23.4459 20.0239 22.3333 19.9948C21.2208 20.0239 20.1166 19.7958 19.1067 19.3281C18.42 18.9748 18 18.5081 18 17.9948V15.3281C18 16.4348 19.94 17.3281 22.3333 17.3281C24.7267 17.3281 26.6667 16.4348 26.6667 15.3281Z" fill="#FDFDF9"></path>
    <path d="M26.6667 18V20.6667C26.6667 21.18 26.2467 21.6467 25.56 22C24.5501 22.4676 23.4459 22.6958 22.3333 22.6667C21.2208 22.6958 20.1166 22.4676 19.1067 22C18.42 21.6467 18 21.18 18 20.6667V18C18 18.5133 18.42 18.98 19.1067 19.3333C20.1166 19.801 21.2208 20.0291 22.3333 20C23.4459 20.0291 24.5501 19.801 25.56 19.3333C26.2467 18.98 26.6667 18.5133 26.6667 18Z" fill="#FF6F59" fill-opacity="0.6"></path>
    <path d="M26.6667 20.6641V23.3307C26.6667 24.4374 24.7267 25.3307 22.3333 25.3307C19.94 25.3307 18 24.4374 18 23.3307V20.6641C18 21.1774 18.42 21.6441 19.1067 21.9974C20.1166 22.465 21.2208 22.6932 22.3333 22.6641C23.4459 22.6932 24.5501 22.465 25.56 21.9974C26.2467 21.6441 26.6667 21.1774 26.6667 20.6641Z" fill="#FDFDF9"></path>
    <path d="M37.9987 28.6641V31.3307C37.9987 32.4374 36.0587 33.3307 33.6654 33.3307C31.272 33.3307 29.332 32.4374 29.332 31.3307V28.6641C29.332 29.1774 29.752 29.6441 30.4387 29.9974C31.4486 30.465 32.5528 30.6932 33.6654 30.6641C34.7779 30.6932 35.8821 30.465 36.892 29.9974C37.5787 29.6441 37.9987 29.1774 37.9987 28.6641Z" fill="#FF6F59" fill-opacity="0.6"></path>
    <path d="M37.9987 26V28.6667C37.9987 29.18 37.5787 29.6467 36.892 30C35.8821 30.4676 34.7779 30.6958 33.6654 30.6667C32.5528 30.6958 31.4486 30.4676 30.4387 30C29.752 29.6467 29.332 29.18 29.332 28.6667V26C29.332 26.5133 29.752 26.98 30.4387 27.3333C31.4486 27.801 32.5528 28.0291 33.6654 28C34.7779 28.0291 35.8821 27.801 36.892 27.3333C37.5787 26.98 37.9987 26.5133 37.9987 26Z" fill="#FDFDF9"></path>
    <path d="M37.9987 23.3281V25.9948C37.9987 26.5081 37.5787 26.9748 36.892 27.3281C35.8821 27.7958 34.7779 28.0239 33.6654 27.9948C32.5528 28.0239 31.4486 27.7958 30.4387 27.3281C29.752 26.9748 29.332 26.5081 29.332 25.9948V23.3281C29.332 24.4348 31.272 25.3281 33.6654 25.3281C36.0587 25.3281 37.9987 24.4348 37.9987 23.3281Z" fill="#FF6F59" fill-opacity="0.6"></path>
    <path d="M37.9987 20.6641V23.3307C37.9987 24.4374 36.0587 25.3307 33.6654 25.3307C31.272 25.3307 29.332 24.4374 29.332 23.3307V20.6641C29.332 21.1774 29.752 21.6441 30.4387 21.9974C31.4486 22.465 32.5528 22.6932 33.6654 22.6641C34.7779 22.6932 35.8821 22.465 36.892 21.9974C37.5787 21.6441 37.9987 21.1774 37.9987 20.6641Z" fill="#FDFDF9"></path>
    <path d="M37.9987 18V20.6667C37.9987 21.18 37.5787 21.6467 36.892 22C35.8821 22.4676 34.7779 22.6958 33.6654 22.6667C32.5528 22.6958 31.4486 22.4676 30.4387 22C29.752 21.6467 29.332 21.18 29.332 20.6667V18C29.332 18.5133 29.752 18.98 30.4387 19.3333C31.4486 19.801 32.5528 20.0291 33.6654 20C34.7779 20.0291 35.8821 19.801 36.892 19.3333C37.5787 18.98 37.9987 18.5133 37.9987 18Z" fill="#FF6F59" fill-opacity="0.6"></path>
    <path d="M37.9987 15.3281V17.9948C37.9987 18.5081 37.5787 18.9748 36.892 19.3281C35.8821 19.7958 34.7779 20.0239 33.6654 19.9948C32.5528 20.0239 31.4486 19.7958 30.4387 19.3281C29.752 18.9748 29.332 18.5081 29.332 17.9948V15.3281C29.332 16.4348 31.272 17.3281 33.6654 17.3281C36.0587 17.3281 37.9987 16.4348 37.9987 15.3281Z" fill="#FDFDF9"></path>
    <path d="M33.6654 9.32813C36.0586 9.32813 37.9987 8.43269 37.9987 7.32813C37.9987 6.22356 36.0586 5.32812 33.6654 5.32812C31.2721 5.32812 29.332 6.22356 29.332 7.32813C29.332 8.43269 31.2721 9.32813 33.6654 9.32813Z" fill="#FDFDF9"></path>
    <path d="M33.666 5.32812C33.3319 5.32863 32.9981 5.3471 32.666 5.38346C34.576 5.59213 35.9993 6.38346 35.9993 7.32813C35.9993 8.27279 34.576 9.06146 32.666 9.27279C32.9981 9.30915 33.3319 9.32762 33.666 9.32813C36.0593 9.32813 37.9993 8.43479 37.9993 7.32813C37.9993 6.22146 36.0593 5.32812 33.666 5.32812Z" fill="#FF6F59" fill-opacity="0.6"></path>
    <path d="M37.9987 12.6641V15.3307C37.9987 16.4374 36.0587 17.3307 33.6654 17.3307C31.272 17.3307 29.332 16.4374 29.332 15.3307V12.6641C29.332 13.1774 29.752 13.6441 30.4387 13.9974C31.4486 14.465 32.5528 14.6932 33.6654 14.6641C34.7779 14.6932 35.8821 14.465 36.892 13.9974C37.5787 13.6441 37.9987 13.1774 37.9987 12.6641Z" fill="#FF6F59" fill-opacity="0.6"></path>
    <path d="M37.9987 10V12.6667C37.9987 13.18 37.5787 13.6467 36.892 14C35.8821 14.4676 34.7779 14.6958 33.6654 14.6667C32.5528 14.6958 31.4486 14.4676 30.4387 14C29.752 13.6467 29.332 13.18 29.332 12.6667V10C29.332 10.5133 29.752 10.98 30.4387 11.3333C31.4486 11.801 32.5528 12.0291 33.6654 12C34.7779 12.0291 35.8821 11.801 36.892 11.3333C37.5787 10.98 37.9987 10.5133 37.9987 10Z" fill="#FDFDF9"></path>
    <path d="M37.9987 7.32812V9.99479C37.9987 10.5081 37.5787 10.9748 36.892 11.3281C35.8821 11.7958 34.7779 12.0239 33.6654 11.9948C32.5528 12.0239 31.4486 11.7958 30.4387 11.3281C29.752 10.9748 29.332 10.5081 29.332 9.99479V7.32812C29.332 8.43479 31.272 9.32812 33.6654 9.32812C36.0587 9.32812 37.9987 8.43479 37.9987 7.32812Z" fill="#FF6F59" fill-opacity="0.6"></path>
    <path d="M10.8861 17.6644L23.3334 5.21641V8.59775C23.3334 8.96983 23.4888 9.32501 23.7621 9.57746C24.0355 9.82991 24.4019 9.95666 24.7728 9.92708C25.4854 9.84239 26.0168 9.22984 26.0001 8.51242V1.99775C26.0001 1.26137 25.4031 0.664415 24.6668 0.664415H18.1414C17.4711 0.649393 16.8862 1.11663 16.7528 1.77375C16.6868 2.16089 16.7948 2.55742 17.0481 2.85758C17.3013 3.15773 17.674 3.33097 18.0668 3.33108H21.4474L9.00009 15.7784C8.74992 16.0285 8.60938 16.3677 8.60938 16.7214C8.60938 17.0751 8.74992 17.4144 9.00009 17.6644C9.25015 17.9146 9.58937 18.0551 9.94309 18.0551C10.2968 18.0551 10.636 17.9146 10.8861 17.6644Z" fill="#FF6F59" fill-opacity="0.6"></path>
    <path d="M1.99935 39.3307H3.99935C3.26297 39.3307 2.66602 38.7338 2.66602 37.9974V1.9974C2.66735 1.52298 2.92141 1.08522 3.33268 0.848729C3.13074 0.729211 2.90067 0.665483 2.66602 0.664062H1.99935C1.26297 0.664062 0.666016 1.26102 0.666016 1.9974V37.9974C0.666016 38.7338 1.26297 39.3307 1.99935 39.3307Z" fill="white"></path>
    <path d="M0 2H1.33333V7.33333H0V2Z" fill="white"></path>
    <path d="M0.679774 5.33333C0.311584 5.33517 0.0116151 5.03819 0.00977414 4.67C0.00793319 4.30181 0.304918 4.00184 0.673108 4H0.679774C1.04796 4 1.34644 4.29848 1.34644 4.66667C1.34644 5.03486 1.04796 5.33333 0.679774 5.33333Z" fill="#475853"></path>
    <path d="M38 35.3333H4.66667V2C4.66667 0.895431 3.77124 0 2.66667 0H2C0.895431 0 0 0.895431 0 2C0 2.23818 0.127066 2.45826 0.333333 2.57735C0.539601 2.69644 0.793733 2.69644 1 2.57735C1.20627 2.45826 1.33333 2.23818 1.33333 2C1.33333 1.63181 1.63181 1.33333 2 1.33333H2.66667C3.03486 1.33333 3.33333 1.63181 3.33333 2V36C3.33333 36.3682 3.63181 36.6667 4 36.6667H38C38.3682 36.6667 38.6667 36.9651 38.6667 37.3333V38C38.6667 38.3682 38.3682 38.6667 38 38.6667H2C1.63181 38.6667 1.33333 38.3682 1.33333 38V7.33333C1.33333 6.96514 1.03486 6.66667 0.666667 6.66667C0.298477 6.66667 0 6.96514 0 7.33333V38C0 39.1046 0.895431 40 2 40H38C39.1046 40 40 39.1046 40 38V37.3333C40 36.2288 39.1046 35.3333 38 35.3333Z" fill="#475853"></path>
    <path d="M6 23.3307V31.3307C6 32.8507 8.15 33.9974 11 33.9974C13.85 33.9974 16 32.8507 16 31.3307V23.3307C16 21.8107 13.85 20.6641 11 20.6641C8.15 20.6641 6 21.8107 6 23.3307ZM14.6667 28.6641C14.6667 28.8847 14.3813 29.1681 13.9187 29.4061C13.0035 29.823 12.0052 30.0252 11 29.9974C9.99357 30.025 8.99412 29.8223 8.078 29.4047C7.61867 29.1681 7.33333 28.8847 7.33333 28.6641V27.8461C7.378 27.8714 7.41867 27.8981 7.46667 27.9221C8.57077 28.4406 9.78056 28.6947 11 28.6641C12.2194 28.6953 13.4292 28.4417 14.5333 27.9234C14.5813 27.8987 14.6233 27.8714 14.6667 27.8461V28.6641ZM14.6667 25.9974C14.6667 26.2181 14.3813 26.5014 13.9187 26.7394C13.0035 27.1563 12.0052 27.3585 11 27.3307C9.99357 27.3584 8.99412 27.1557 8.078 26.7381C7.61867 26.5014 7.33333 26.2181 7.33333 25.9974V25.1767C8.46749 25.7532 9.72832 26.0354 11 25.9974C12.2717 26.0354 13.5325 25.7532 14.6667 25.1767V25.9974ZM11 32.6641C8.79533 32.6641 7.33333 31.8641 7.33333 31.3307V30.5127C7.378 30.5381 7.41867 30.5647 7.46667 30.5887C8.57077 31.1073 9.78056 31.3614 11 31.3307C12.2194 31.362 13.4292 31.1084 14.5333 30.5901C14.5813 30.5654 14.6233 30.5381 14.6667 30.5127V31.3307C14.6667 31.8641 13.2047 32.6641 11 32.6641ZM14.6667 23.3307C14.6667 23.8641 13.2047 24.6641 11 24.6641C8.79533 24.6641 7.33333 23.8641 7.33333 23.3307C7.33333 22.7974 8.79533 21.9974 11 21.9974C13.2047 21.9974 14.6667 22.7974 14.6667 23.3307Z" fill="#475853"></path>
    <path d="M22.334 33.9974C25.184 33.9974 27.334 32.8507 27.334 31.3307V15.3307C27.334 13.8107 25.184 12.6641 22.334 12.6641C19.484 12.6641 17.334 13.8107 17.334 15.3307V31.3307C17.334 32.8507 19.484 33.9974 22.334 33.9974ZM26.0007 17.9974C26.0007 18.2181 25.7153 18.5014 25.2527 18.7394C24.3375 19.1563 23.3392 19.3585 22.334 19.3307C21.3276 19.3584 20.3281 19.1557 19.412 18.7381C18.9527 18.5014 18.6673 18.2181 18.6673 17.9974V17.1767C19.8015 17.7532 21.0623 18.0354 22.334 17.9974C23.6057 18.0354 24.8665 17.7532 26.0007 17.1767V17.9974ZM18.8007 19.9221C19.9048 20.4406 21.1145 20.6947 22.334 20.6641C23.5533 20.6953 24.7632 20.4417 25.8673 19.9234C25.9153 19.8987 25.9573 19.8714 26.0007 19.8461V20.6641C26.0007 20.8847 25.7153 21.1681 25.2527 21.4061C24.3375 21.823 23.3392 22.0252 22.334 21.9974C21.3276 22.025 20.3281 21.8223 19.412 21.4047C18.9527 21.1681 18.6673 20.8847 18.6673 20.6641V19.8461C18.712 19.8714 18.7527 19.8981 18.8007 19.9221ZM18.8007 22.5887C19.9048 23.1073 21.1145 23.3614 22.334 23.3307C23.5533 23.362 24.7632 23.1084 25.8673 22.5901C25.9153 22.5654 25.9573 22.5381 26.0007 22.5127V23.3307C26.0007 23.8641 24.5387 24.6641 22.334 24.6641C20.1293 24.6641 18.6673 23.8641 18.6673 23.3307V22.5127C18.712 22.5381 18.7527 22.5647 18.8007 22.5887ZM22.334 25.9974C23.6057 26.0354 24.8665 25.7532 26.0007 25.1767V25.9974C26.0007 26.2181 25.7153 26.5014 25.2527 26.7394C24.3375 27.1563 23.3392 27.3585 22.334 27.3307C21.3276 27.3584 20.3281 27.1557 19.412 26.7381C18.9527 26.5014 18.6673 26.2181 18.6673 25.9974V25.1767C19.8015 25.7532 21.0623 26.0354 22.334 25.9974ZM18.8007 27.9221C19.9048 28.4406 21.1145 28.6947 22.334 28.6641C23.5533 28.6953 24.7632 28.4417 25.8673 27.9234C25.9153 27.8987 25.9573 27.8714 26.0007 27.8461V28.6641C26.0007 28.8847 25.7153 29.1681 25.2527 29.4061C24.3375 29.823 23.3392 30.0252 22.334 29.9974C21.3276 30.025 20.3281 29.8223 19.412 29.4047C18.9527 29.1681 18.6673 28.8847 18.6673 28.6641V27.8461C18.712 27.8714 18.7527 27.8981 18.8007 27.9221ZM22.334 32.6641C20.1293 32.6641 18.6673 31.8641 18.6673 31.3307V30.5127C18.712 30.5381 18.7527 30.5647 18.8007 30.5887C19.9048 31.1073 21.1145 31.3614 22.334 31.3307C23.5533 31.362 24.7632 31.1084 25.8673 30.5901C25.9153 30.5654 25.9573 30.5381 26.0007 30.5127V31.3307C26.0007 31.8641 24.5387 32.6641 22.334 32.6641ZM22.334 13.9974C24.5387 13.9974 26.0007 14.7974 26.0007 15.3307C26.0007 15.8641 24.5387 16.6641 22.334 16.6641C20.1293 16.6641 18.6673 15.8641 18.6673 15.3307C18.6673 14.7974 20.1293 13.9974 22.334 13.9974Z" fill="#475853"></path>
    <path d="M28.666 15.3307V31.3307C28.666 32.8507 30.816 33.9974 33.666 33.9974C36.516 33.9974 38.666 32.8507 38.666 31.3307V7.33073C38.666 5.81073 36.516 4.66406 33.666 4.66406C30.816 4.66406 28.666 5.81073 28.666 7.33073V15.3307ZM37.3327 28.6641C37.3327 28.8847 37.0473 29.1681 36.5847 29.4061C35.6695 29.823 34.6712 30.0252 33.666 29.9974C32.6596 30.025 31.6601 29.8223 30.744 29.4047C30.2847 29.1681 29.9993 28.8847 29.9993 28.6641V27.8461C30.044 27.8714 30.0847 27.8981 30.1327 27.9221C31.2368 28.4406 32.4466 28.6947 33.666 28.6641C34.8854 28.6953 36.0952 28.4417 37.1993 27.9234C37.2473 27.8987 37.2893 27.8714 37.3327 27.8461V28.6641ZM37.3327 25.9974C37.3327 26.2181 37.0473 26.5014 36.5847 26.7394C35.6695 27.1563 34.6712 27.3585 33.666 27.3307C32.6596 27.3584 31.6601 27.1557 30.744 26.7381C30.2847 26.5014 29.9993 26.2181 29.9993 25.9974V25.1767C31.1335 25.7532 32.3943 26.0354 33.666 25.9974C34.9377 26.0354 36.1985 25.7532 37.3327 25.1767V25.9974ZM37.3327 23.3307C37.3327 23.8641 35.8707 24.6641 33.666 24.6641C31.4613 24.6641 29.9993 23.8641 29.9993 23.3307V22.5127C30.044 22.5381 30.0847 22.5647 30.1327 22.5887C31.2368 23.1073 32.4466 23.3614 33.666 23.3307C34.8854 23.362 36.0952 23.1084 37.1993 22.5901C37.2473 22.5654 37.2893 22.5381 37.3327 22.5127V23.3307ZM37.3327 20.6641C37.3327 20.8847 37.0473 21.1681 36.5847 21.4061C35.6695 21.823 34.6712 22.0252 33.666 21.9974C32.6596 22.025 31.6601 21.8223 30.744 21.4047C30.2847 21.1681 29.9993 20.8847 29.9993 20.6641V19.8461C30.044 19.8714 30.0847 19.8981 30.1327 19.9221C31.2368 20.4406 32.4466 20.6947 33.666 20.6641C34.8854 20.6953 36.0952 20.4417 37.1993 19.9234C37.2473 19.8987 37.2893 19.8714 37.3327 19.8461V20.6641ZM37.3327 17.9974C37.3327 18.2181 37.0473 18.5014 36.5847 18.7394C35.6695 19.1563 34.6712 19.3585 33.666 19.3307C32.6596 19.3584 31.6601 19.1557 30.744 18.7381C30.2847 18.5014 29.9993 18.2181 29.9993 17.9974V17.1767C31.1335 17.7532 32.3943 18.0354 33.666 17.9974C34.9377 18.0354 36.1985 17.7532 37.3327 17.1767V17.9974ZM37.3327 15.3307C37.3327 15.8641 35.8707 16.6641 33.666 16.6641C31.4613 16.6641 29.9993 15.8641 29.9993 15.3307V14.5127C30.044 14.5381 30.0847 14.5647 30.1327 14.5887C31.2368 15.1073 32.4466 15.3614 33.666 15.3307C34.8854 15.362 36.0952 15.1084 37.1993 14.5901C37.2473 14.5654 37.2893 14.5381 37.3327 14.5127V15.3307ZM37.3327 12.6641C37.3327 12.8847 37.0473 13.1681 36.5847 13.4061C35.6695 13.823 34.6712 14.0252 33.666 13.9974C32.6596 14.025 31.6601 13.8223 30.744 13.4047C30.2847 13.1681 29.9993 12.8847 29.9993 12.6641V11.8461C30.044 11.8714 30.0847 11.8981 30.1327 11.9221C31.2368 12.4406 32.4466 12.6947 33.666 12.6641C34.8854 12.6953 36.0952 12.4417 37.1993 11.9234C37.2473 11.8987 37.2893 11.8714 37.3327 11.8461V12.6641ZM37.3327 9.9974C37.3327 10.2181 37.0473 10.5014 36.5847 10.7394C35.6695 11.1563 34.6712 11.3585 33.666 11.3307C32.6596 11.3584 31.6601 11.1557 30.744 10.7381C30.2847 10.5014 29.9993 10.2181 29.9993 9.9974V9.17673C31.1335 9.75319 32.3943 10.0354 33.666 9.9974C34.9377 10.0354 36.1985 9.75319 37.3327 9.17673V9.9974ZM33.666 32.6641C31.4613 32.6641 29.9993 31.8641 29.9993 31.3307V30.5127C30.044 30.5381 30.0847 30.5647 30.1327 30.5887C31.2368 31.1073 32.4466 31.3614 33.666 31.3307C34.8854 31.362 36.0952 31.1084 37.1993 30.5901C37.2473 30.5654 37.2893 30.5381 37.3327 30.5127V31.3307C37.3327 31.8641 35.8707 32.6641 33.666 32.6641ZM33.666 5.9974C35.8707 5.9974 37.3327 6.7974 37.3327 7.33073C37.3327 7.86406 35.8707 8.66406 33.666 8.66406C31.4613 8.66406 29.9993 7.86406 29.9993 7.33073C29.9993 6.7974 31.4613 5.9974 33.666 5.9974Z" fill="#475853"></path>
    <path d="M22.6658 8.60017C22.6657 9.1581 22.8987 9.69071 23.3085 10.0693C23.7183 10.448 24.2676 10.6382 24.8238 10.5942C25.8839 10.4831 26.6834 9.58053 26.6658 8.51484V2.00017C26.6658 0.895599 25.7704 0.000168739 24.6658 0.000168739H18.1405C17.1449 -0.0124986 16.2831 0.689341 16.0938 1.66684C15.9957 2.24731 16.1583 2.84152 16.5383 3.29115C16.9183 3.74079 17.4771 4.00016 18.0658 4.00017H19.8391L8.52714 15.3095C7.74603 16.0908 7.74618 17.3574 8.52748 18.1385C9.30878 18.9196 10.5754 18.9195 11.3565 18.1382L22.6658 6.82817V8.60017ZM10.4138 17.1948C10.1535 17.4553 9.73131 17.4555 9.47081 17.1952C9.21032 16.9349 9.21017 16.5127 9.47048 16.2522L21.9185 3.80484C22.1091 3.61417 22.1661 3.32748 22.0629 3.0784C21.9598 2.82932 21.7167 2.66689 21.4471 2.66684H18.0658C17.8688 2.66653 17.682 2.57907 17.5555 2.42794C17.4291 2.27682 17.376 2.0775 17.4105 1.8835C17.4927 1.55033 17.7975 1.32066 18.1405 1.3335H24.6658C25.034 1.3335 25.3325 1.63198 25.3325 2.00017V8.51484C25.3476 8.88377 25.0844 9.2057 24.7198 9.26417C24.5248 9.28284 24.3318 9.21197 24.1951 9.0715C24.0695 8.94687 23.9989 8.77715 23.9991 8.60017V5.21884C23.9991 4.94924 23.8367 4.70621 23.5876 4.60305C23.3385 4.49989 23.0518 4.5569 22.8611 4.7475L10.4138 17.1948Z" fill="#475853"></path>
  </g>
  <defs>
    <clipPath id="clip0_2176_1675">
      <rect width="40" height="40" fill="white"></rect>
    </clipPath>
  </defs>
</svg>
