<?xml version="1.0" encoding="UTF-8"?>
<svg xmlns="http://www.w3.org/2000/svg" width="40" height="40" viewBox="0 0 40 40" fill="none">
  <g clip-path="url(#clip0_2176_1717)">
    <path d="M35.3327 21.9974C35.3327 31.5703 27.5723 39.3307 17.9993 39.3307C8.42641 39.3307 0.666016 31.5703 0.666016 21.9974C0.666016 12.4245 8.42641 4.66406 17.9993 4.66406C19.3559 4.66352 20.7076 4.82466 22.026 5.14406C19.7854 8.82165 20.3517 13.5548 23.3968 16.5999C26.4419 19.645 31.1751 20.2114 34.8527 17.9707C35.1721 19.2891 35.3332 20.6409 35.3327 21.9974Z" fill="#FF6F59" fill-opacity="0.6"></path>
    <path d="M20.0271 5.14406C18.1618 8.17394 18.1871 12.0021 20.0923 15.0071C21.9974 18.0121 25.4491 19.668 28.9851 19.2734C25.8126 18.9262 23.0374 16.982 21.6274 14.1188C20.2175 11.2556 20.3682 7.87054 22.0271 5.14406C20.7088 4.82466 19.357 4.66352 18.0005 4.66406C17.6671 4.66406 17.3338 4.6754 17.0078 4.69406C18.0257 4.75364 19.0362 4.90424 20.0271 5.14406Z" fill="#FF6F59" fill-opacity="0.6"></path>
    <path d="M34.8533 17.9766C34.2786 18.3236 33.6685 18.6083 33.0333 18.8259C33.2322 19.8733 33.3326 20.9371 33.3333 22.0032C33.3324 31.187 26.1685 38.7761 17 39.3059C17.3333 39.3246 17.6667 39.3366 18 39.3366C27.5729 39.3366 35.3333 31.5762 35.3333 22.0032C35.3339 20.6467 35.1727 19.2949 34.8533 17.9766Z" fill="#FF6F59" fill-opacity="0.6"></path>
    <path d="M30.6674 22.0035C30.6673 27.3734 27.2813 32.1597 22.2177 33.9475C17.1541 35.7352 11.5135 34.1358 8.1419 29.9562C4.77034 25.7767 4.40061 19.9254 7.21927 15.3547C10.0379 10.784 15.4323 8.48728 20.6807 9.62345C20.6696 9.74979 20.6652 9.87664 20.6674 10.0034C20.6674 15.1581 24.8461 19.3368 30.0007 19.3368C30.1275 19.339 30.2544 19.3345 30.3807 19.3234C30.5711 20.2041 30.6672 21.1025 30.6674 22.0035Z" fill="#FDFDF9"></path>
    <path d="M30.3808 19.3226C30.2544 19.3337 30.1276 19.3382 30.0008 19.3359C24.8461 19.3359 20.6674 15.1573 20.6674 10.0026C20.6652 9.87579 20.6697 9.74895 20.6808 9.6226C19.8001 9.43222 18.9017 9.33612 18.0008 9.33594C17.6521 9.33594 17.3101 9.3606 16.9688 9.38794C17.544 9.42757 18.116 9.50597 18.6808 9.6226C18.6697 9.74895 18.6652 9.87579 18.6674 10.0026C18.6674 15.1573 22.8461 19.3359 28.0008 19.3359C28.1276 19.3382 28.2544 19.3337 28.3808 19.3226C29.1541 22.8935 28.3464 26.6244 26.1655 29.5558C23.9846 32.4872 20.6433 34.333 17.0008 34.6186C17.3341 34.6446 17.6634 34.6693 18.0008 34.6693C21.8307 34.6693 25.4549 32.9365 27.8596 29.9556C30.2643 26.9747 31.1911 23.0658 30.3808 19.3226Z" fill="#FF6F59" fill-opacity="0.6"></path>
    <path d="M39.3338 9.99764C39.3358 13.2538 37.6371 16.2745 34.8538 17.9643V17.971C31.1762 20.2116 26.443 19.6452 23.3979 16.6002C20.3528 13.5551 19.7865 8.82189 22.0271 5.1443H22.0338C24.2086 1.57082 28.4962 -0.118274 32.5239 1.01167C36.5517 2.14162 39.335 5.81437 39.3338 9.99764Z" fill="#FDFDF9"></path>
    <path d="M29.9995 0.664063C29.669 0.665747 29.3388 0.684661 29.0102 0.72073C32.9833 1.15118 36.2409 4.06478 37.1101 7.9655C37.9794 11.8662 36.2673 15.8873 32.8529 17.9641V17.9707C31.6785 18.6862 30.3598 19.1316 28.9922 19.2747C29.4527 19.3266 29.9167 19.3409 30.3795 19.3174C31.9613 19.2585 33.5015 18.7948 34.8529 17.9707V17.9641C38.4263 15.7892 40.1154 11.5017 38.9855 7.47392C37.8555 3.44615 34.1828 0.662822 29.9995 0.664063Z" fill="#FF6F59" fill-opacity="0.6"></path>
    <path d="M28.0008 15.3341C27.6471 15.3348 27.3077 15.1941 27.0581 14.9435L24.3915 12.2768C24.0448 11.942 23.9058 11.4463 24.0279 10.9801C24.1499 10.5139 24.5139 10.1499 24.9801 10.0279C25.4463 9.90584 25.942 10.0449 26.2768 10.3915L28.0008 12.1155L33.7248 6.39146C34.0596 6.04485 34.5553 5.90584 35.0215 6.02786C35.4876 6.14988 35.8517 6.51394 35.9737 6.98012C36.0957 7.44629 35.9567 7.94203 35.6101 8.27679L28.9435 14.9435C28.6939 15.1941 28.3545 15.3348 28.0008 15.3341Z" fill="white"></path>
    <path d="M2.66602 21.9974C2.66684 12.8107 9.83503 5.22018 19.0067 4.69406C18.6733 4.67473 18.338 4.66406 17.9993 4.66406C8.42641 4.66406 0.666016 12.4245 0.666016 21.9974C0.666016 31.5703 8.42641 39.3307 17.9993 39.3307C18.3327 39.3307 18.666 39.3187 18.9993 39.3001C9.83085 38.7702 2.66697 31.1812 2.66602 21.9974Z" fill="white"></path>
    <path d="M4.25039 12.5905L3.15039 11.8365C4.19639 10.3116 5.46827 8.95479 6.92239 7.8125L7.74372 8.8625C6.3972 9.92108 5.21932 11.1781 4.25039 12.5905Z" fill="white"></path>
    <path d="M5.37704 10.8021C5.00885 10.8039 4.70888 10.5069 4.70704 10.1388C4.7052 9.77056 5.00218 9.47059 5.37037 9.46875H5.37704C5.74523 9.46875 6.04371 9.76723 6.04371 10.1354C6.04371 10.5036 5.74523 10.8021 5.37704 10.8021Z" fill="#475853"></path>
    <path d="M18 15.9974C19.4728 15.9974 20.6667 17.1913 20.6667 18.6641C20.6667 19.0323 20.9651 19.3307 21.3333 19.3307C21.7015 19.3307 22 19.0323 22 18.6641C21.9964 16.7143 20.5889 15.0506 18.6667 14.7241V13.3307C18.6667 12.9625 18.3682 12.6641 18 12.6641C17.6318 12.6641 17.3333 12.9625 17.3333 13.3307V14.7241C15.2939 15.0811 13.864 16.9356 14.0372 18.9988C14.2104 21.062 15.9295 22.6521 18 22.6641C19.4728 22.6641 20.6667 23.858 20.6667 25.3307C20.6667 26.8035 19.4728 27.9974 18 27.9974C16.5272 27.9974 15.3333 26.8035 15.3333 25.3307C15.3333 24.9625 15.0349 24.6641 14.6667 24.6641C14.2985 24.6641 14 24.9625 14 25.3307C14.0036 27.2805 15.4111 28.9442 17.3333 29.2707V30.6641C17.3333 31.0323 17.6318 31.3307 18 31.3307C18.3682 31.3307 18.6667 31.0323 18.6667 30.6641V29.2707C20.7061 28.9137 22.136 27.0592 21.9628 24.996C21.7896 22.9327 20.0705 21.3427 18 21.3307C16.5272 21.3307 15.3333 20.1368 15.3333 18.6641C15.3333 17.1913 16.5272 15.9974 18 15.9974Z" fill="#475853"></path>
    <path d="M30 0C26.6808 0.00163533 23.5788 1.65008 21.72 4.4C16.5248 3.28281 11.1018 4.53304 6.92001 7.812C6.73233 7.95872 6.63717 8.19442 6.67039 8.43032C6.70361 8.66621 6.86015 8.86647 7.08106 8.95565C7.30196 9.04483 7.55366 9.00938 7.74134 8.86267C8.17868 8.52067 8.63334 8.21 9.09601 7.916L9.75334 9.05467C9.87158 9.26263 10.0922 9.3913 10.3314 9.39183C10.5707 9.39235 10.7918 9.26466 10.911 9.05721C11.0301 8.84977 11.029 8.59438 10.908 8.388L10.248 7.24533C12.438 6.09233 14.8599 5.44812 17.3333 5.36067V6.66667C17.3333 7.03486 17.6318 7.33333 18 7.33333C18.3682 7.33333 18.6667 7.03486 18.6667 6.66667V5.35333C19.4586 5.3837 20.2473 5.47126 21.0267 5.61533C20.5284 6.62502 20.2064 7.71246 20.0747 8.83067C14.3648 7.92702 8.72235 10.8026 6.09816 15.9537C3.47397 21.1047 4.46486 27.3596 8.55261 31.4474C12.6404 35.5352 18.8953 36.526 24.0463 33.9018C29.1974 31.2777 32.073 25.6352 31.1693 19.9253C32.2874 19.7934 33.3748 19.4717 34.3847 18.974C34.5285 19.7531 34.616 20.5416 34.6467 21.3333H33.3333C32.9652 21.3333 32.6667 21.6318 32.6667 22C32.6667 22.3682 32.9652 22.6667 33.3333 22.6667H34.65C34.5538 25.1387 33.9048 27.5578 32.7507 29.746L31.612 29.0893C31.2934 28.9082 30.8884 29.0182 30.7052 29.3355C30.5219 29.6529 30.6292 30.0587 30.9453 30.244L32.0787 30.8993C30.7539 32.9871 28.9845 34.7566 26.8967 36.0813L26.2413 34.948C26.1231 34.74 25.9025 34.6114 25.6633 34.6108C25.424 34.6103 25.2029 34.738 25.0837 34.9455C24.9646 35.1529 24.9657 35.4083 25.0867 35.6147L25.7433 36.7527C23.5558 37.9057 21.1377 38.554 18.6667 38.65V37.3333C18.6667 36.9651 18.3682 36.6667 18 36.6667C17.6318 36.6667 17.3333 36.9651 17.3333 37.3333V38.65C14.8613 38.5538 12.4422 37.9048 10.254 36.7507L10.9107 35.6127C11.0918 35.2941 10.9818 34.8891 10.6645 34.7058C10.3471 34.5226 9.94135 34.6299 9.75601 34.946L9.10068 36.0793C7.01335 34.7554 5.24412 32.9868 3.91934 30.9L5.05268 30.244C5.26064 30.1258 5.38931 29.9052 5.38984 29.6659C5.39036 29.4267 5.26267 29.2055 5.05522 29.0864C4.84778 28.9672 4.59239 28.9683 4.38601 29.0893L3.24801 29.7467C2.09417 27.5582 1.4456 25.1389 1.35001 22.6667H2.66668C3.03487 22.6667 3.33334 22.3682 3.33334 22C3.33334 21.6318 3.03487 21.3333 2.66668 21.3333H1.35934C1.46045 18.8633 2.10726 16.4464 3.25334 14.256L4.38668 14.9107C4.48792 14.9694 4.60295 15.0002 4.72001 15C5.02173 15 5.28584 14.7973 5.36393 14.5059C5.44202 14.2144 5.31464 13.9069 5.05334 13.756L3.92001 13.1033C4.02934 12.932 4.13134 12.756 4.24668 12.5893C4.44391 12.2872 4.37339 11.8839 4.08534 11.6667C3.94127 11.5594 3.75924 11.5165 3.58244 11.5482C3.40564 11.5799 3.24984 11.6834 3.15201 11.834C-1.22246 18.2173 -1.02751 26.6822 3.63618 32.8574C8.29988 39.0325 16.3885 41.5358 23.725 39.0746C31.0616 36.6133 36.004 29.7384 36 22C35.9977 20.7494 35.8637 19.5025 35.6 18.28C39.2365 15.8173 40.8406 11.2702 39.5541 7.0709C38.2677 2.87162 34.3919 0.00319602 30 0ZM18 34C13.4482 34.0367 9.26748 31.4949 7.20528 27.4368C5.14307 23.3788 5.55446 18.5033 8.26749 14.8482C10.9805 11.1931 15.528 9.38774 20.0093 10.1867C20.1136 15.5575 24.4425 19.8864 29.8133 19.9907C30.4388 23.4772 29.4794 27.0611 27.196 29.7691C24.9126 32.477 21.5421 34.0277 18 34ZM30 18.6667C25.2135 18.6667 21.3333 14.7865 21.3333 10C21.3333 5.21353 25.2135 1.33333 30 1.33333C34.7865 1.33333 38.6667 5.21353 38.6667 10C38.6612 14.7842 34.7842 18.6612 30 18.6667Z" fill="#475853"></path>
    <path d="M33.2529 5.9181L28.0002 11.1708L26.7482 9.9181C25.9566 9.16272 24.7112 9.16272 23.9196 9.9181C23.1388 10.6991 23.1388 11.9651 23.9196 12.7461L26.5862 15.4128C26.9613 15.7879 27.4701 15.9987 28.0006 15.9987C28.531 15.9987 29.0398 15.7879 29.4149 15.4128L36.0816 8.7461C36.8623 7.9651 36.8623 6.6991 36.0816 5.9181C35.29 5.16272 34.0445 5.16272 33.2529 5.9181ZM35.1382 7.80344L28.4716 14.4701C28.2082 14.7229 27.7923 14.7229 27.5289 14.4701L24.8622 11.8034C24.6889 11.6361 24.6194 11.3882 24.6804 11.1551C24.7414 10.922 24.9235 10.74 25.1566 10.679C25.3896 10.618 25.6375 10.6875 25.8049 10.8608L27.5289 12.5848C27.7892 12.845 28.2112 12.845 28.4716 12.5848L34.1956 6.86077C34.4589 6.60798 34.8748 6.60798 35.1382 6.86077C35.3985 7.1211 35.3985 7.5431 35.1382 7.80344Z" fill="#475853"></path>
  </g>
  <defs>
    <clipPath id="clip0_2176_1717">
      <rect width="40" height="40" fill="white"></rect>
    </clipPath>
  </defs>
</svg>
