<?xml version="1.0" encoding="UTF-8"?>
<svg xmlns="http://www.w3.org/2000/svg" width="40" height="40" viewBox="0 0 40 40" fill="none">
  <g clip-path="url(#clip0_2176_1615)">
    <path d="M25.3393 15.9174C25.6127 18.6574 26.666 19.3307 26.666 19.3307C26.3127 19.3318 25.9742 19.4726 25.7244 19.7224C25.4746 19.9722 25.3337 20.3108 25.3327 20.6641C25.3353 21.0169 25.4766 21.3545 25.7261 21.604C25.9756 21.8535 26.3132 21.9948 26.666 21.9974C23.686 23.3641 21.9993 28.7507 21.9993 32.2441C21.9812 33.3098 22.207 34.3656 22.6594 35.3307H1.33268C1.15587 35.3307 0.986302 35.2605 0.861278 35.1355C0.736253 35.0104 0.666016 34.8409 0.666016 34.6641V5.9974L5.99935 0.664062H26.666C26.8428 0.664063 27.0124 0.7343 27.1374 0.859325C27.2624 0.984349 27.3327 1.15392 27.3327 1.33073V14.2841C26.9793 14.3374 26.6727 14.3974 26.3993 14.4574C26.0746 14.5289 25.7874 14.717 25.592 14.9861C25.3967 15.2551 25.3068 15.5865 25.3393 15.9174Z" fill="#FDFDF9"></path>
    <path d="M26.3991 14.4574C26.6724 14.3974 26.9791 14.3374 27.3324 14.2841V1.33073C27.3324 1.15392 27.2622 0.984349 27.1371 0.859325C27.0121 0.7343 26.8425 0.664063 26.6657 0.664062H24.6657C24.8425 0.664063 25.0121 0.7343 25.1371 0.859325C25.2622 0.984349 25.3324 1.15392 25.3324 1.33073V14.2841C24.9791 14.3374 24.6724 14.3974 24.3991 14.4574C24.0743 14.5289 23.7871 14.717 23.5917 14.9861C23.3964 15.2551 23.3065 15.5865 23.3391 15.9174C23.6124 18.6574 24.6657 19.3307 24.6657 19.3307C24.3124 19.3318 23.9739 19.4726 23.7241 19.7224C23.4743 19.9722 23.3334 20.3108 23.3324 20.6641C23.335 21.0169 23.4763 21.3545 23.7258 21.604C23.9753 21.8535 24.3129 21.9948 24.6657 21.9974C21.6857 23.3641 19.9991 28.7507 19.9991 32.2441C19.981 33.3098 20.2067 34.3656 20.6591 35.3307H22.6591C22.2067 34.3656 21.981 33.3098 21.9991 32.2441C21.9991 28.7507 23.6857 23.3641 26.6657 21.9974C26.3129 21.9948 25.9753 21.8535 25.7258 21.604C25.4763 21.3545 25.335 21.0169 25.3324 20.6641C25.3334 20.3108 25.4743 19.9722 25.7241 19.7224C25.9739 19.4726 26.3124 19.3318 26.6657 19.3307C26.6657 19.3307 25.6124 18.6574 25.3391 15.9174C25.3065 15.5865 25.3964 15.2551 25.5917 14.9861C25.7871 14.717 26.0743 14.5289 26.3991 14.4574Z" fill="#FF6F59" fill-opacity="0.6"></path>
    <path d="M5.99935 0.664062V5.33073C5.99935 5.50754 5.92911 5.67711 5.80409 5.80213C5.67906 5.92716 5.50949 5.9974 5.33268 5.9974H0.666016L5.99935 0.664062Z" fill="#FDFDF9"></path>
    <path d="M39.3324 32.2467C39.3324 37.0333 35.4524 39.3333 30.6657 39.3333C27.0591 39.3333 23.9657 38.0267 22.6591 35.3333C22.2067 34.3682 21.981 33.3124 21.9991 32.2467C21.9991 28.7533 23.6857 23.3667 26.6657 22H34.6657C37.6457 23.3667 39.3324 28.7533 39.3324 32.2467Z" fill="#FF6F59" fill-opacity="0.6"></path>
    <path d="M34.6653 22H32.6653C35.6453 23.3667 37.3319 28.7533 37.3319 32.2467C37.3319 36.6927 33.9826 38.9907 29.6699 39.2953C29.9986 39.318 30.3279 39.3333 30.6653 39.3333C35.4519 39.3333 39.3319 37.0333 39.3319 32.2467C39.3319 28.7533 37.6453 23.3667 34.6653 22Z" fill="#FDFDF9"></path>
    <path d="M35.9987 20.6615C35.9976 21.0148 35.8568 21.3533 35.607 21.6031C35.3572 21.8529 35.0187 21.9937 34.6654 21.9948H26.6654C26.3126 21.9922 25.9749 21.8509 25.7254 21.6014C25.476 21.3519 25.3346 21.0143 25.332 20.6615C25.3331 20.3082 25.4739 19.9696 25.7237 19.7198C25.9735 19.47 26.3121 19.3292 26.6654 19.3281H34.6654C35.0182 19.3307 35.3558 19.4721 35.6053 19.7215C35.8548 19.971 35.9961 20.3086 35.9987 20.6615Z" fill="#FF6F59" fill-opacity="0.6"></path>
    <path d="M35.606 19.7215C35.4838 19.5961 35.3376 19.4967 35.176 19.4291C35.0145 19.3616 34.8411 19.3272 34.666 19.3281H32.666C33.0188 19.3308 33.3564 19.4721 33.6059 19.7216C33.8554 19.971 33.9967 20.3087 33.9993 20.6615C33.9983 21.0148 33.8575 21.3533 33.6077 21.6031C33.3578 21.8529 33.0193 21.9938 32.666 21.9948H34.666C35.0193 21.9938 35.3578 21.8529 35.6077 21.6031C35.8575 21.3533 35.9983 21.0148 35.9993 20.6615C36.0003 20.4864 35.9659 20.3129 35.8984 20.1514C35.8308 19.9899 35.7314 19.8437 35.606 19.7215Z" fill="#FDFDF9"></path>
    <path d="M35.9919 15.92C35.7186 18.66 34.6652 19.3333 34.6652 19.3333H26.6652C26.6652 19.3333 25.6119 18.66 25.3386 15.92C25.306 15.5891 25.3959 15.2577 25.5912 14.9887C25.7866 14.7196 26.0738 14.5315 26.3986 14.46C26.6719 14.4 26.9786 14.34 27.3319 14.2867C28.4331 14.0983 29.5481 14.0024 30.6652 14C32.0996 14.0046 33.5295 14.1588 34.9319 14.46C35.2566 14.5315 35.5439 14.7196 35.7392 14.9887C35.9346 15.2577 36.0245 15.5891 35.9919 15.92Z" fill="#FDFDF9"></path>
    <path d="M34.9328 14.46C33.5305 14.1588 32.1005 14.0046 30.6662 14C30.3202 14 29.9855 14.0113 29.6602 14.0287C30.7607 14.0864 31.8549 14.2306 32.9328 14.46C33.2576 14.5315 33.5448 14.7196 33.7401 14.9887C33.9355 15.2577 34.0254 15.5891 33.9928 15.92C33.7195 18.66 32.6662 19.3333 32.6662 19.3333H34.6662C34.6662 19.3333 35.7195 18.66 35.9928 15.92C36.0254 15.5891 35.9355 15.2577 35.7401 14.9887C35.5448 14.7196 35.2576 14.5315 34.9328 14.46Z" fill="#FDFDF9"></path>
    <path d="M1.33268 35.3333H3.33268C3.15587 35.3333 2.9863 35.2631 2.86128 35.1381C2.73625 35.013 2.66602 34.8435 2.66602 34.6667V6H0.666016V34.6667C0.666016 34.8435 0.736253 35.013 0.861278 35.1381C0.986302 35.2631 1.15587 35.3333 1.33268 35.3333Z" fill="white"></path>
    <path d="M0 29.3359H1.33333V34.6693H0V29.3359Z" fill="white"></path>
    <path d="M0.666667 32.6693C1.03486 32.6693 1.33333 32.3708 1.33333 32.0026C1.33333 31.6344 1.03486 31.3359 0.666667 31.3359C0.298477 31.3359 0 31.6344 0 32.0026C0 32.3708 0.298477 32.6693 0.666667 32.6693Z" fill="#475853"></path>
    <path d="M9.33268 8H5.33268C5.15587 8 4.9863 8.07024 4.86128 8.19526C4.73625 8.32029 4.66602 8.48986 4.66602 8.66667C4.66602 8.84348 4.73625 9.01305 4.86128 9.13807C4.9863 9.2631 5.15587 9.33333 5.33268 9.33333H6.66602V14C6.66602 14.1768 6.73625 14.3464 6.86128 14.4714C6.9863 14.5964 7.15587 14.6667 7.33268 14.6667C7.50949 14.6667 7.67906 14.5964 7.80409 14.4714C7.92911 14.3464 7.99935 14.1768 7.99935 14V9.33333H9.33268C9.50949 9.33333 9.67906 9.2631 9.80409 9.13807C9.92911 9.01305 9.99935 8.84348 9.99935 8.66667C9.99935 8.48986 9.92911 8.32029 9.80409 8.19526C9.67906 8.07024 9.50949 8 9.33268 8Z" fill="#475853"></path>
    <path d="M16.0007 14.6667C16.1775 14.6667 16.347 14.5964 16.4721 14.4714C16.5971 14.3464 16.6673 14.1768 16.6673 14V10.6667C16.6673 9.95942 16.3864 9.28115 15.8863 8.78105C15.3862 8.28095 14.7079 8 14.0007 8C13.2934 8 12.6151 8.28095 12.115 8.78105C11.6149 9.28115 11.334 9.95942 11.334 10.6667V14C11.334 14.1768 11.4042 14.3464 11.5292 14.4714C11.6543 14.5964 11.8238 14.6667 12.0007 14.6667C12.1775 14.6667 12.347 14.5964 12.4721 14.4714C12.5971 14.3464 12.6673 14.1768 12.6673 14V12.6667H15.334V14C15.334 14.1768 15.4042 14.3464 15.5292 14.4714C15.6543 14.5964 15.8238 14.6667 16.0007 14.6667ZM12.6673 11.3333V10.6667C12.6673 10.313 12.8078 9.97391 13.0578 9.72386C13.3079 9.47381 13.647 9.33333 14.0007 9.33333C14.3543 9.33333 14.6934 9.47381 14.9435 9.72386C15.1935 9.97391 15.334 10.313 15.334 10.6667V11.3333H12.6673Z" fill="#475853"></path>
    <path d="M18.2667 14.5333C18.3367 14.5859 18.4164 14.6241 18.5012 14.6458C18.586 14.6675 18.6743 14.6724 18.761 14.66C18.8476 14.6476 18.931 14.6183 19.0063 14.5737C19.0817 14.529 19.1475 14.47 19.2 14.4L20.6667 12.444L22.1333 14.4C22.2394 14.5415 22.3974 14.635 22.5724 14.66C22.7474 14.685 22.9252 14.6394 23.0667 14.5333C23.2081 14.4272 23.3016 14.2693 23.3266 14.0943C23.3516 13.9193 23.3061 13.7415 23.2 13.6L21.5 11.3333L23.2 9.06667C23.3061 8.92522 23.3516 8.74742 23.3266 8.57239C23.3016 8.39735 23.2081 8.23942 23.0667 8.13334C22.9252 8.02725 22.7474 7.9817 22.5724 8.0067C22.3974 8.03171 22.2394 8.12522 22.1333 8.26667L20.6667 10.2227L19.2 8.26667C19.0939 8.12522 18.936 8.03171 18.761 8.0067C18.5859 7.9817 18.4081 8.02725 18.2667 8.13334C18.1252 8.23942 18.0317 8.39735 18.0067 8.57239C17.9817 8.74742 18.0273 8.92522 18.1333 9.06667L19.8333 11.3333L18.1333 13.6C18.0273 13.7415 17.9817 13.9193 18.0067 14.0943C18.0317 14.2693 18.1252 14.4272 18.2667 14.5333Z" fill="#475853"></path>
    <path d="M3.33398 18.0026C3.33398 18.1794 3.40422 18.349 3.52925 18.474C3.65427 18.599 3.82384 18.6693 4.00065 18.6693H5.33398C5.5108 18.6693 5.68036 18.599 5.80539 18.474C5.93041 18.349 6.00065 18.1794 6.00065 18.0026C6.00065 17.8258 5.93041 17.6562 5.80539 17.5312C5.68036 17.4062 5.5108 17.3359 5.33398 17.3359H4.00065C3.82384 17.3359 3.65427 17.4062 3.52925 17.5312C3.40422 17.6562 3.33398 17.8258 3.33398 18.0026Z" fill="#475853"></path>
    <path d="M7.33398 18.0026C7.33398 18.1794 7.40422 18.349 7.52925 18.474C7.65427 18.599 7.82384 18.6693 8.00065 18.6693H22.6673C22.8441 18.6693 23.0137 18.599 23.1387 18.474C23.2637 18.349 23.334 18.1794 23.334 18.0026C23.334 17.8258 23.2637 17.6562 23.1387 17.5312C23.0137 17.4062 22.8441 17.3359 22.6673 17.3359H8.00065C7.82384 17.3359 7.65427 17.4062 7.52925 17.5312C7.40422 17.6562 7.33398 17.8258 7.33398 18.0026Z" fill="#475853"></path>
    <path d="M4.00065 22.6693H5.33398C5.5108 22.6693 5.68036 22.599 5.80539 22.474C5.93041 22.349 6.00065 22.1794 6.00065 22.0026C6.00065 21.8258 5.93041 21.6562 5.80539 21.5312C5.68036 21.4062 5.5108 21.3359 5.33398 21.3359H4.00065C3.82384 21.3359 3.65427 21.4062 3.52925 21.5312C3.40422 21.6562 3.33398 21.8258 3.33398 22.0026C3.33398 22.1794 3.40422 22.349 3.52925 22.474C3.65427 22.599 3.82384 22.6693 4.00065 22.6693Z" fill="#475853"></path>
    <path d="M22.6673 22.0026C22.6673 21.8258 22.5971 21.6562 22.4721 21.5312C22.347 21.4062 22.1775 21.3359 22.0007 21.3359H8.00065C7.82384 21.3359 7.65427 21.4062 7.52925 21.5312C7.40422 21.6562 7.33398 21.8258 7.33398 22.0026C7.33398 22.1794 7.40422 22.349 7.52925 22.474C7.65427 22.599 7.82384 22.6693 8.00065 22.6693H22.0007C22.1775 22.6693 22.347 22.599 22.4721 22.474C22.5971 22.349 22.6673 22.1794 22.6673 22.0026Z" fill="#475853"></path>
    <path d="M4.00065 26.6693H5.33398C5.5108 26.6693 5.68036 26.599 5.80539 26.474C5.93041 26.349 6.00065 26.1794 6.00065 26.0026C6.00065 25.8258 5.93041 25.6562 5.80539 25.5312C5.68036 25.4062 5.5108 25.3359 5.33398 25.3359H4.00065C3.82384 25.3359 3.65427 25.4062 3.52925 25.5312C3.40422 25.6562 3.33398 25.8258 3.33398 26.0026C3.33398 26.1794 3.40422 26.349 3.52925 26.474C3.65427 26.599 3.82384 26.6693 4.00065 26.6693Z" fill="#475853"></path>
    <path d="M20.6673 26.0026C20.6673 25.8258 20.5971 25.6562 20.4721 25.5312C20.347 25.4062 20.1775 25.3359 20.0007 25.3359H8.00065C7.82384 25.3359 7.65427 25.4062 7.52925 25.5312C7.40422 25.6562 7.33398 25.8258 7.33398 26.0026C7.33398 26.1794 7.40422 26.349 7.52925 26.474C7.65427 26.599 7.82384 26.6693 8.00065 26.6693H20.0007C20.1775 26.6693 20.347 26.599 20.4721 26.474C20.5971 26.349 20.6673 26.1794 20.6673 26.0026Z" fill="#475853"></path>
    <path d="M4.00065 30.6693H5.33398C5.5108 30.6693 5.68036 30.599 5.80539 30.474C5.93041 30.349 6.00065 30.1794 6.00065 30.0026C6.00065 29.8258 5.93041 29.6562 5.80539 29.5312C5.68036 29.4062 5.5108 29.3359 5.33398 29.3359H4.00065C3.82384 29.3359 3.65427 29.4062 3.52925 29.5312C3.40422 29.6562 3.33398 29.8258 3.33398 30.0026C3.33398 30.1794 3.40422 30.349 3.52925 30.474C3.65427 30.599 3.82384 30.6693 4.00065 30.6693Z" fill="#475853"></path>
    <path d="M8.00065 29.3359C7.82384 29.3359 7.65427 29.4062 7.52925 29.5312C7.40422 29.6562 7.33398 29.8258 7.33398 30.0026C7.33398 30.1794 7.40422 30.349 7.52925 30.474C7.65427 30.599 7.82384 30.6693 8.00065 30.6693H19.334C19.5108 30.6693 19.6804 30.599 19.8054 30.474C19.9304 30.349 20.0007 30.1794 20.0007 30.0026C20.0007 29.8258 19.9304 29.6562 19.8054 29.5312C19.6804 29.4062 19.5108 29.3359 19.334 29.3359H8.00065Z" fill="#475853"></path>
    <path d="M36.0547 22.1013C36.2691 21.8953 36.4347 21.6439 36.5394 21.3655C36.644 21.0872 36.6851 20.7889 36.6595 20.4926C36.6339 20.1964 36.5424 19.9095 36.3916 19.6532C36.2408 19.3969 36.0346 19.1776 35.788 19.0113C36.2919 18.0766 36.5876 17.0438 36.6547 15.984C36.7036 15.4914 36.5699 14.9979 36.2788 14.5975C35.9878 14.197 35.5597 13.9175 35.076 13.812C33.6273 13.4971 32.1492 13.3367 30.6667 13.3333C29.7749 13.3346 28.8841 13.3938 28 13.5107V1.33333C28 0.979711 27.8595 0.640573 27.6095 0.390524C27.3594 0.140476 27.0203 0 26.6667 0L6 0C5.8232 3.77583e-05 5.65366 0.0703004 5.52867 0.195333L0.195333 5.52867C0.0703004 5.65366 3.77583e-05 5.8232 0 6L0 29.3333C0 29.5101 0.0702379 29.6797 0.195262 29.8047C0.320286 29.9298 0.489856 30 0.666667 30C0.843478 30 1.01305 29.9298 1.13807 29.8047C1.2631 29.6797 1.33333 29.5101 1.33333 29.3333V6.66667H5.33333C5.50843 6.66667 5.68181 6.63218 5.84358 6.56517C6.00535 6.49817 6.15233 6.39995 6.27614 6.27614C6.39995 6.15233 6.49817 6.00535 6.56517 5.84358C6.63218 5.68181 6.66667 5.50843 6.66667 5.33333V1.33333H26.6667V13.7267C26.5207 13.7553 26.3827 13.784 26.2547 13.812C25.7711 13.9176 25.3432 14.1972 25.0523 14.5977C24.7613 14.9981 24.6277 15.4915 24.6767 15.984C24.7437 17.0438 25.0394 18.0766 25.5433 19.0113C25.2968 19.1776 25.0905 19.3969 24.9397 19.6532C24.7889 19.9095 24.6974 20.1964 24.6718 20.4926C24.6463 20.7889 24.6873 21.0872 24.792 21.3655C24.8966 21.6439 25.0622 21.8953 25.2767 22.1013C22.596 24.288 21.3333 29.2 21.3333 32.2467C21.3287 33.0673 21.4512 33.8836 21.6967 34.6667H1.33333C1.33333 34.4899 1.2631 34.3203 1.13807 34.1953C1.01305 34.0702 0.843478 34 0.666667 34C0.489856 34 0.320286 34.0702 0.195262 34.1953C0.0702379 34.3203 0 34.4899 0 34.6667C0 35.0203 0.140476 35.3594 0.390524 35.6095C0.640573 35.8595 0.979711 36 1.33333 36H22.2867C23.722 38.5067 26.7007 40 30.6667 40C36.3367 40 40 36.9567 40 32.2467C40 29.2 38.7373 24.288 36.0547 22.1013ZM2.276 5.33333L5.33333 2.276V5.33333H2.276ZM26.6667 21.3333C26.4899 21.3333 26.3203 21.2631 26.1953 21.1381C26.0702 21.013 26 20.8435 26 20.6667C26 20.4899 26.0702 20.3203 26.1953 20.1953C26.3203 20.0702 26.4899 20 26.6667 20H34.6667C34.8435 20 35.0131 20.0702 35.1381 20.1953C35.2631 20.3203 35.3333 20.4899 35.3333 20.6667C35.3333 20.8435 35.2631 21.013 35.1381 21.1381C35.0131 21.2631 34.8435 21.3333 34.6667 21.3333H26.6667ZM26.5407 15.114C29.259 14.5176 32.0743 14.5176 34.7927 15.114C34.9575 15.1491 35.1036 15.2435 35.2033 15.3793C35.303 15.5152 35.3493 15.6829 35.3333 15.8507C35.1527 17.622 34.6373 18.4 34.4047 18.6667H26.9287C26.696 18.4 26.1807 17.622 26.0033 15.8507C25.9872 15.6834 26.0331 15.516 26.1321 15.3803C26.2311 15.2445 26.3765 15.1498 26.5407 15.114ZM30.6667 38.6667C26.8 38.6667 22.6667 36.9807 22.6667 32.2467C22.6667 28.67 24.374 23.9133 26.8353 22.6667H34.498C36.9593 23.9147 38.6667 28.67 38.6667 32.2467C38.6667 36.9807 34.5333 38.6667 30.6667 38.6667Z" fill="#475853"></path>
    <path d="M30.6667 27.3307C31.0203 27.3307 31.3594 27.4712 31.6095 27.7213C31.8595 27.9713 32 28.3104 32 28.6641C32 28.8409 32.0702 29.0104 32.1953 29.1355C32.3203 29.2605 32.4899 29.3307 32.6667 29.3307C32.8435 29.3307 33.013 29.2605 33.1381 29.1355C33.2631 29.0104 33.3333 28.8409 33.3333 28.6641C33.3311 28.0746 33.1337 27.5025 32.7718 27.0371C32.4099 26.5718 31.9041 26.2394 31.3333 26.0921V25.3307C31.3333 25.1539 31.2631 24.9843 31.1381 24.8593C31.013 24.7343 30.8435 24.6641 30.6667 24.6641C30.4899 24.6641 30.3203 24.7343 30.1953 24.8593C30.0702 24.9843 30 25.1539 30 25.3307V26.0921C29.3722 26.2536 28.825 26.6388 28.4611 27.1752C28.0971 27.7116 27.9415 28.3623 28.0233 29.0054C28.1051 29.6484 28.4188 30.2394 28.9055 30.6676C29.3922 31.0957 30.0185 31.3315 30.6667 31.3307C30.9304 31.3307 31.1882 31.4089 31.4074 31.5554C31.6267 31.7019 31.7976 31.9102 31.8985 32.1538C31.9994 32.3975 32.0258 32.6655 31.9744 32.9242C31.9229 33.1828 31.7959 33.4204 31.6095 33.6069C31.423 33.7933 31.1854 33.9203 30.9268 33.9718C30.6681 34.0232 30.4001 33.9968 30.1564 33.8959C29.9128 33.795 29.7045 33.6241 29.558 33.4048C29.4115 33.1856 29.3333 32.9278 29.3333 32.6641C29.3333 32.4873 29.2631 32.3177 29.1381 32.1927C29.013 32.0676 28.8435 31.9974 28.6667 31.9974C28.4899 31.9974 28.3203 32.0676 28.1953 32.1927C28.0702 32.3177 28 32.4873 28 32.6641C28.0022 33.2535 28.1997 33.8257 28.5615 34.291C28.9234 34.7564 29.4292 35.0887 30 35.2361V35.9974C30 36.1742 30.0702 36.3438 30.1953 36.4688C30.3203 36.5938 30.4899 36.6641 30.6667 36.6641C30.8435 36.6641 31.013 36.5938 31.1381 36.4688C31.2631 36.3438 31.3333 36.1742 31.3333 35.9974V35.2361C31.9611 35.0745 32.5083 34.6894 32.8722 34.153C33.2362 33.6166 33.3919 32.9658 33.31 32.3228C33.2282 31.6797 32.9145 31.0887 32.4278 30.6605C31.9411 30.2324 31.3149 29.9966 30.6667 29.9974C30.313 29.9974 29.9739 29.8569 29.7239 29.6069C29.4738 29.3568 29.3333 29.0177 29.3333 28.6641C29.3333 28.3104 29.4738 27.9713 29.7239 27.7213C29.9739 27.4712 30.313 27.3307 30.6667 27.3307Z" fill="#475853"></path>
  </g>
  <defs>
    <clipPath id="clip0_2176_1615">
      <rect width="40" height="40" fill="white"></rect>
    </clipPath>
  </defs>
</svg>
