<?xml version="1.0" encoding="UTF-8"?>
<svg xmlns="http://www.w3.org/2000/svg" width="40" height="40" viewBox="0 0 40 40" fill="none">
  <g clip-path="url(#clip0_2176_1645)">
    <path d="M29.9994 15.3281H3.33268C1.85992 15.3281 0.666016 16.522 0.666016 17.9948V34.6615C0.666016 36.1342 1.85992 37.3281 3.33268 37.3281H29.9994C31.4721 37.3281 32.666 36.1342 32.666 34.6615V17.9948C32.666 16.522 31.4721 15.3281 29.9994 15.3281Z" fill="#FDFDF9"></path>
    <path d="M30 15.3281H28C29.4728 15.3281 30.6667 16.522 30.6667 17.9948V34.6615C30.6667 36.1342 29.4728 37.3281 28 37.3281H30C31.4728 37.3281 32.6667 36.1342 32.6667 34.6615V17.9948C32.6667 16.522 31.4728 15.3281 30 15.3281Z" fill="#FF6F59" fill-opacity="0.6"></path>
    <path d="M31.9993 17.3307C36.0494 17.3307 39.3327 14.0475 39.3327 9.9974C39.3327 5.94731 36.0494 2.66406 31.9993 2.66406C27.9493 2.66406 24.666 5.94731 24.666 9.9974C24.666 14.0475 27.9493 17.3307 31.9993 17.3307Z" fill="#FDFDF9"></path>
    <path d="M32 2.66406C31.6653 2.66671 31.3312 2.6921 31 2.74006C34.6287 3.23551 37.3338 6.33502 37.3338 9.9974C37.3338 13.6598 34.6287 16.7593 31 17.2547C33.7141 17.6307 36.4112 16.4616 37.9923 14.2238C39.5734 11.986 39.7744 9.05323 38.5134 6.62066C37.2524 4.18809 34.74 2.66191 32 2.66406Z" fill="#FF6F59" fill-opacity="0.6"></path>
    <path d="M0.666016 29.3281H32.666V33.3281H0.666016V29.3281Z" fill="#FF6F59" fill-opacity="0.6"></path>
    <path d="M30.666 29.3281H32.666V33.3281H30.666V29.3281Z" fill="#FF6F59" fill-opacity="0.6"></path>
    <path d="M9.33333 19.3281H6.66667C5.19391 19.3281 4 20.522 4 21.9948C4 23.4676 5.19391 24.6615 6.66667 24.6615H9.33333C10.8061 24.6615 12 23.4676 12 21.9948C12 20.522 10.8061 19.3281 9.33333 19.3281Z" fill="#FDFDF9"></path>
    <path d="M9.33203 19.3281H7.33203C8.80479 19.3281 9.9987 20.522 9.9987 21.9948C9.9987 23.4676 8.80479 24.6615 7.33203 24.6615H9.33203C10.8048 24.6615 11.9987 23.4676 11.9987 21.9948C11.9987 20.522 10.8048 19.3281 9.33203 19.3281Z" fill="#FF6F59" fill-opacity="0.6"></path>
    <path d="M19.9993 17.3307C24.0494 17.3307 27.3327 14.0475 27.3327 9.9974C27.3327 5.94731 24.0494 2.66406 19.9993 2.66406C15.9493 2.66406 12.666 5.94731 12.666 9.9974C12.666 14.0475 15.9493 17.3307 19.9993 17.3307Z" fill="#FDFDF9"></path>
    <path d="M20 2.66406C19.6653 2.66671 19.3312 2.6921 19 2.74006C22.6287 3.23551 25.3338 6.33502 25.3338 9.9974C25.3338 13.6598 22.6287 16.7593 19 17.2547C21.7141 17.6307 24.4112 16.4616 25.9923 14.2238C27.5734 11.986 27.7744 9.05323 26.5134 6.62066C25.2524 4.18809 22.74 2.66191 20 2.66406Z" fill="#FF6F59" fill-opacity="0.6"></path>
    <path d="M3.33268 37.3359H5.33268C3.85992 37.3359 2.66602 36.142 2.66602 34.6693V18.0026C2.66602 16.5298 3.85992 15.3359 5.33268 15.3359H3.33268C1.85992 15.3359 0.666016 16.5298 0.666016 18.0026V34.6693C0.666016 36.142 1.85992 37.3359 3.33268 37.3359Z" fill="white"></path>
    <path d="M0 18H1.33333V23.3333H0V18Z" fill="white"></path>
    <path d="M9.33398 18.6641H6.66732C4.82637 18.6641 3.33398 20.1564 3.33398 21.9974C3.33398 23.8383 4.82637 25.3307 6.66732 25.3307H9.33398C11.1749 25.3307 12.6673 23.8383 12.6673 21.9974C12.6673 20.1564 11.1749 18.6641 9.33398 18.6641ZM9.33398 23.9974H6.66732C5.56275 23.9974 4.66732 23.102 4.66732 21.9974C4.66732 20.8928 5.56275 19.9974 6.66732 19.9974H9.33398C10.4386 19.9974 11.334 20.8928 11.334 21.9974C11.334 23.102 10.4386 23.9974 9.33398 23.9974Z" fill="#475853"></path>
    <path d="M0.679774 21.3333C0.311584 21.3352 0.0116151 21.0382 0.00977414 20.67C0.00793319 20.3018 0.304918 20.0018 0.673108 20H0.679774C1.04796 20 1.34644 20.2985 1.34644 20.6667C1.34644 21.0349 1.04796 21.3333 0.679774 21.3333Z" fill="#475853"></path>
    <path d="M0.666667 18.6641C1.03486 18.6641 1.33333 18.3656 1.33333 17.9974C1.33333 16.8928 2.22876 15.9974 3.33333 15.9974H11.3333C11.7015 15.9974 12 15.6989 12 15.3307C12 14.9625 11.7015 14.6641 11.3333 14.6641H3.33333C1.4933 14.6663 0.00220408 16.1574 0 17.9974C0 18.1742 0.0702379 18.3438 0.195262 18.4688C0.320286 18.5938 0.489856 18.6641 0.666667 18.6641Z" fill="#475853"></path>
    <path d="M3.33333 38.0026H30C31.84 38.0004 33.3311 36.5093 33.3333 34.6693V20.0026C33.3333 19.6344 33.0349 19.3359 32.6667 19.3359C32.2985 19.3359 32 19.6344 32 20.0026V28.6693H1.33333V23.3359C1.33333 22.9677 1.03486 22.6693 0.666667 22.6693C0.298477 22.6693 0 22.9677 0 23.3359V34.6693C0.00220408 36.5093 1.4933 38.0004 3.33333 38.0026ZM32 30.0026V32.6693H1.33333V30.0026H32ZM1.33333 34.0026H32V34.6693C32 35.7738 31.1046 36.6693 30 36.6693H3.33333C2.22876 36.6693 1.33333 35.7738 1.33333 34.6693V34.0026Z" fill="#475853"></path>
    <path d="M29.3333 20.6667C29.3333 20.2985 29.0349 20 28.6667 20H16.6667C16.2985 20 16 20.2985 16 20.6667C16 21.0349 16.2985 21.3333 16.6667 21.3333H28.6667C29.0349 21.3333 29.3333 21.0349 29.3333 20.6667Z" fill="#475853"></path>
    <path d="M16.6667 22.6641C16.2985 22.6641 16 22.9625 16 23.3307C16 23.6989 16.2985 23.9974 16.6667 23.9974H22.6667C23.0349 23.9974 23.3333 23.6989 23.3333 23.3307C23.3333 22.9625 23.0349 22.6641 22.6667 22.6641H16.6667Z" fill="#475853"></path>
    <path d="M21.9993 8C21.9993 8.36819 22.2978 8.66667 22.666 8.66667C23.0342 8.66667 23.3327 8.36819 23.3327 8C23.3327 6.712 22.1853 5.63533 20.666 5.38733V4.66667C20.666 4.29848 20.3675 4 19.9993 4C19.6312 4 19.3327 4.29848 19.3327 4.66667V5.38733C17.8133 5.63533 16.666 6.712 16.666 8C16.666 9.288 17.8133 10.3647 19.3327 10.6127V13.2487C18.566 13.06 17.9993 12.5673 17.9993 12C17.9993 11.6318 17.7009 11.3333 17.3327 11.3333C16.9645 11.3333 16.666 11.6318 16.666 12C16.666 13.288 17.8133 14.3647 19.3327 14.6127V15.3333C19.3327 15.7015 19.6312 16 19.9993 16C20.3675 16 20.666 15.7015 20.666 15.3333V14.6127C22.1853 14.3647 23.3327 13.288 23.3327 12C23.3327 10.712 22.1853 9.63533 20.666 9.38733V6.75133C21.4327 6.94 21.9993 7.43267 21.9993 8ZM17.9993 8C17.9993 7.43267 18.566 6.94 19.3327 6.75133V9.24867C18.566 9.06 17.9993 8.56733 17.9993 8ZM21.9993 12C21.9993 12.5673 21.4327 13.06 20.666 13.2487V10.7513C21.4327 10.94 21.9993 11.4327 21.9993 12Z" fill="#475853"></path>
    <path d="M20 2C15.5817 2 12 5.58172 12 10C12 14.4183 15.5817 18 20 18C24.4183 18 28 14.4183 28 10C27.9952 5.5837 24.4163 2.00478 20 2ZM20 16.6667C16.3181 16.6667 13.3333 13.6819 13.3333 10C13.3333 6.3181 16.3181 3.33333 20 3.33333C23.6819 3.33333 26.6667 6.3181 26.6667 10C26.6626 13.6802 23.6802 16.6626 20 16.6667Z" fill="#475853"></path>
    <path d="M31.9992 2.00002C30.4152 1.9965 28.8664 2.46815 27.5532 3.35402C27.3513 3.48531 27.2359 3.71528 27.2514 3.95562C27.2668 4.19595 27.4107 4.40927 27.6277 4.51367C27.8447 4.61807 28.1012 4.5973 28.2986 4.45935C29.3918 3.7224 30.6808 3.33017 31.9992 3.33335C35.6811 3.33335 38.6659 6.31812 38.6659 10C38.6659 13.6819 35.6811 16.6667 31.9992 16.6667C30.6808 16.6699 29.3918 16.2776 28.2986 15.5407C28.1012 15.4027 27.8447 15.382 27.6277 15.4864C27.4107 15.5908 27.2668 15.8041 27.2514 16.0444C27.2359 16.2848 27.3513 16.5147 27.5532 16.646C28.8664 17.5319 30.4152 18.0035 31.9992 18C36.4175 18 39.9992 14.4183 39.9992 10C39.9992 5.58174 36.4175 2.00002 31.9992 2.00002Z" fill="#475853"></path>
    <path d="M32.6673 11.3359V6.0026C32.6673 5.63441 32.3688 5.33594 32.0007 5.33594C31.6325 5.33594 31.334 5.63441 31.334 6.0026V11.3359C31.334 11.7041 31.6325 12.0026 32.0007 12.0026C32.3688 12.0026 32.6673 11.7041 32.6673 11.3359Z" fill="#475853"></path>
    <path d="M32.0007 14.6693C32.3688 14.6693 32.6673 14.3708 32.6673 14.0026C32.6673 13.6344 32.3688 13.3359 32.0007 13.3359C31.6325 13.3359 31.334 13.6344 31.334 14.0026C31.334 14.3708 31.6325 14.6693 32.0007 14.6693Z" fill="#475853"></path>
  </g>
  <defs>
    <clipPath id="clip0_2176_1645">
      <rect width="40" height="40" fill="white"></rect>
    </clipPath>
  </defs>
</svg>
