<?xml version="1.0" encoding="UTF-8"?>
<svg xmlns="http://www.w3.org/2000/svg" width="40" height="40" viewBox="0 0 40 40" fill="none">
  <g clip-path="url(#clip0_2176_1596)">
    <path d="M33.7794 26.3254C33.1038 25.9587 32.4786 25.5061 31.9194 24.9787C31.3584 24.4427 31.0223 23.7134 30.9794 22.9387C30.9727 21.5387 32.1994 20.492 33.2461 19.552C34.2562 18.7671 35.0104 17.6997 35.4127 16.4854C35.7194 15.252 35.2327 13.7387 34.0394 13.2787C33.4727 13.0654 32.7927 13.092 32.3394 12.6787C31.7061 12.112 31.9061 11.092 32.1661 10.272C31.3756 10.1468 30.5782 10.4515 30.0727 11.072C29.5775 11.6839 28.9797 12.205 28.3061 12.612C27.5861 12.932 26.5327 12.6787 26.3727 11.9054C26.2527 11.3054 26.7194 10.7654 27.0994 10.2854C28.2257 8.83428 28.8357 7.04892 28.8327 5.21203C28.7523 4.43711 28.8087 3.65408 28.9994 2.89869V2.89203C26.2258 1.42778 23.1357 0.665553 19.9994 0.672028C19.474 0.669692 18.9489 0.694168 18.4261 0.745361C17.9861 2.61203 17.6127 4.65203 18.4994 6.35203C18.9861 7.28536 19.8527 8.08536 19.9527 9.14536C20.1061 10.7787 18.4061 11.932 17.7461 13.4387C17.3261 14.3987 17.2127 15.6854 16.2461 16.0854C15.2661 16.492 14.2394 15.6587 13.1861 15.5187C11.9762 15.4346 10.866 16.1894 10.4994 17.3454C10.1769 18.5009 10.5149 19.7402 11.3794 20.572C12.2554 21.3816 13.4216 21.8024 14.6127 21.7387C16.0194 21.692 17.5127 21.0987 18.7794 21.7254C19.8595 22.3783 20.4649 23.5968 20.3327 24.852C20.1735 26.081 19.7772 27.2673 19.1661 28.3454C18.6194 29.4787 18.0661 30.6187 17.5194 31.7587C16.9194 32.9987 16.1927 34.3654 14.8727 34.812C14.4151 34.9972 13.8962 34.95 13.4794 34.6854C13.0763 34.2924 12.8898 33.7278 12.9794 33.172C13.0753 32.6243 13.1089 32.0674 13.0794 31.512C12.8927 30.3987 11.8194 29.6654 10.7594 29.272C9.69939 28.8787 8.55272 28.6854 7.63272 28.0387C6.71272 27.3787 6.14605 26.0187 6.81272 25.112C7.26605 24.4987 8.12605 24.2854 8.56605 23.6654C9.19272 22.7654 8.65939 21.5454 8.11939 20.592C7.25304 18.9082 6.1779 17.3403 4.91939 15.9254C4.13939 15.1254 3.21939 14.4054 2.76605 13.3854C2.56152 12.9207 2.45268 12.4196 2.44605 11.912C1.26808 14.4472 0.660474 17.2099 0.666054 20.0054C0.667148 29.0027 6.87474 36.8099 15.6404 38.8385C24.406 40.8671 33.4124 36.5808 37.3661 28.4987C36.1661 27.7787 34.9705 27.0543 33.7794 26.3254ZM28.0461 17.1254C27.9183 17.528 27.6886 17.8909 27.3794 18.1787C27.0492 18.5868 26.5348 18.8001 26.0127 18.7454C25.6128 18.6185 25.2856 18.3276 25.1127 17.9454C24.9396 17.5665 24.7273 17.2068 24.4794 16.872C24.1461 16.4987 23.6327 16.2454 23.4861 15.7654C23.3944 15.3987 23.5309 15.0128 23.8327 14.7854C24.1437 14.5694 24.5481 14.5413 24.8861 14.712C25.2327 14.8854 25.4661 15.2254 25.8194 15.3787C26.1909 15.4893 26.5797 15.53 26.9661 15.4987C27.3523 15.5144 27.7075 15.7143 27.9213 16.0363C28.1351 16.3583 28.1815 16.7633 28.0461 17.1254Z" fill="#FF6F59" fill-opacity="0.6"></path>
    <path d="M20.3339 24.8489C20.1747 26.0778 19.7785 27.2642 19.1673 28.3422C18.6206 29.4755 18.0673 30.6155 17.5206 31.7555C16.9206 32.9955 16.1939 34.3622 14.8739 34.8089C14.4163 34.994 13.8974 34.9468 13.4806 34.6822C13.0776 34.2892 12.891 33.7246 12.9806 33.1689C13.0765 32.6211 13.1101 32.0642 13.0806 31.5089C12.8939 30.3955 11.8206 29.6622 10.7606 29.2689C9.7006 28.8755 8.55393 28.6822 7.63393 28.0355C6.71393 27.3755 6.14727 26.0155 6.81393 25.1089C7.26727 24.4955 8.12727 24.2822 8.56727 23.6622C9.19393 22.7622 8.6606 21.5422 8.1206 20.5889C7.25426 18.905 6.17911 17.3371 4.9206 15.9222C4.1406 15.1222 3.2206 14.4022 2.76727 13.3822C2.56273 12.9176 2.4539 12.4165 2.44727 11.9089C5.35882 5.56753 11.4715 1.29605 18.4273 0.742188C17.9873 2.60885 17.6139 4.64885 18.5006 6.34886C18.9873 7.28219 19.8539 8.08219 19.9539 9.14219C20.1073 10.7755 18.4073 11.9289 17.7473 13.4355C17.3273 14.3955 17.2139 15.6822 16.2473 16.0822C15.2673 16.4889 14.2406 15.6555 13.1873 15.5155C11.9775 15.4314 10.8672 16.1862 10.5006 17.3422C10.1781 18.4977 10.5161 19.737 11.3806 20.5689C12.2566 21.3784 13.4228 21.7992 14.6139 21.7355C16.0206 21.6889 17.5139 21.0955 18.7806 21.7222C19.8607 22.3752 20.4661 23.5936 20.3339 24.8489Z" fill="#FDFDF9"></path>
    <path d="M11.3803 20.572C10.5158 19.7402 10.1778 18.5009 10.5003 17.3453C10.7391 16.622 11.2715 16.0328 11.967 15.722C11.7147 15.6289 11.4536 15.5619 11.1876 15.522C9.97783 15.4379 8.86762 16.1927 8.50097 17.3487C8.1785 18.5042 8.51649 19.7435 9.38097 20.5753C10.257 21.3849 11.4232 21.8057 12.6143 21.742C12.9188 21.7282 13.2223 21.6984 13.5236 21.6527C12.7187 21.5104 11.9733 21.1346 11.3803 20.572Z" fill="#FF6F59" fill-opacity="0.6"></path>
    <path d="M16.3628 1.02819C15.9542 2.81619 15.6588 4.73485 16.5008 6.34886C16.9875 7.28219 17.8542 8.08219 17.9542 9.14219C18.1075 10.7755 16.4075 11.9289 15.7475 13.4355C15.3715 14.2942 15.2368 15.4095 14.5215 15.9222C15.0548 16.1956 15.673 16.2529 16.2475 16.0822C17.2142 15.6822 17.3275 14.3955 17.7475 13.4355C18.4075 11.9289 20.1075 10.7755 19.9542 9.14219C19.8542 8.08219 18.9875 7.28219 18.5008 6.34886C17.6142 4.64885 17.9875 2.60885 18.4275 0.742188C17.7346 0.800215 17.0454 0.895688 16.3628 1.02819Z" fill="#FF6F59" fill-opacity="0.6"></path>
    <path d="M18.7801 21.7253C17.9842 21.4093 17.1105 21.3448 16.2768 21.5407C16.4506 21.5845 16.6193 21.6464 16.7801 21.7253C17.8603 22.3783 18.4656 23.5968 18.3335 24.852C18.1742 26.0809 17.778 27.2673 17.1668 28.3453C16.6201 29.4787 16.0668 30.6187 15.5201 31.7587C15.0028 32.8253 14.3868 33.9893 13.3828 34.576C13.4125 34.6148 13.4451 34.6513 13.4801 34.6853C13.8969 34.95 14.4158 34.9971 14.8735 34.812C16.1935 34.3653 16.9201 32.9987 17.5201 31.7587C18.0668 30.6187 18.6201 29.4787 19.1668 28.3453C19.778 27.2673 20.1742 26.0809 20.3335 24.852C20.4656 23.5968 19.8603 22.3783 18.7801 21.7253Z" fill="#FF6F59" fill-opacity="0.6"></path>
    <path d="M39.3327 20.004C39.3367 22.9484 38.6638 25.8543 37.366 28.4973C36.8394 28.184 36.3194 27.864 35.7994 27.5506C35.126 27.144 34.4527 26.7306 33.7794 26.324C33.1038 25.9573 32.4786 25.5047 31.9194 24.9773C31.3584 24.4413 31.0223 23.712 30.9794 22.9373C30.9727 21.5373 32.1994 20.4906 33.246 19.5506C34.2562 18.7657 35.0104 17.6983 35.4127 16.484C35.5372 15.9522 35.5281 15.3979 35.3861 14.8706C35.3594 14.7773 35.326 14.684 35.2927 14.5973C35.0799 14.0001 34.6247 13.5207 34.0394 13.2773C33.4727 13.064 32.7927 13.0906 32.3394 12.6773C31.706 12.1106 31.906 11.0906 32.166 10.2706C31.3756 10.1454 30.5782 10.4501 30.0727 11.0706C29.5775 11.6825 28.9797 12.2036 28.306 12.6106C27.586 12.9306 26.5327 12.6773 26.3727 11.904C26.2527 11.304 26.7194 10.764 27.0994 10.284C28.2257 8.83288 28.8357 7.04751 28.8327 5.21063C28.826 4.81729 28.806 4.39062 28.8194 3.98396C28.8162 3.61406 28.8771 3.24641 28.9994 2.89729V2.89062C35.3568 6.23115 39.3367 12.8223 39.3327 20.004Z" fill="#FDFDF9"></path>
    <path d="M28.0471 17.1257C27.9194 17.5284 27.6897 17.8913 27.3805 18.1791C27.0503 18.5872 26.5359 18.8005 26.0138 18.7457C25.6139 18.6188 25.2867 18.328 25.1138 17.9457C24.9407 17.5669 24.7284 17.2071 24.4805 16.8724C24.1471 16.4991 23.6338 16.2457 23.4871 15.7657C23.3955 15.3991 23.532 15.0132 23.8338 14.7857C24.1448 14.5698 24.5492 14.5416 24.8871 14.7124C25.2338 14.8857 25.4671 15.2257 25.8205 15.3791C26.192 15.4897 26.5808 15.5303 26.9671 15.4991C27.3533 15.5148 27.7086 15.7147 27.9224 16.0367C28.1362 16.3587 28.1826 16.7637 28.0471 17.1257Z" fill="#FDFDF9"></path>
    <path d="M37.3662 28.4935C34.127 35.1309 27.3852 39.339 19.9996 39.3335C19.6329 39.3335 19.2663 39.3202 18.9062 39.3002C25.9568 38.9805 32.2698 34.8358 35.3662 28.4935C35.5196 28.1802 35.6663 27.8669 35.7996 27.5469C36.3196 27.8602 36.8396 28.1802 37.3662 28.4935Z" fill="#FDFDF9"></path>
    <path d="M29.0003 2.89192V2.89858C28.8781 3.2477 28.8172 3.61535 28.8203 3.98525C28.2351 3.58631 27.6274 3.22127 27.0003 2.89192C24.5299 1.58819 21.8037 0.841787 19.0137 0.705249C19.3403 0.685249 19.667 0.671916 20.0003 0.671916C23.1367 0.665442 26.2268 1.42767 29.0003 2.89192Z" fill="#FDFDF9"></path>
    <path d="M39.3338 20.004C39.3377 22.9484 38.6648 25.8543 37.3671 28.4973C36.8404 28.184 36.3204 27.864 35.8004 27.5506C36.8147 25.164 37.3362 22.5971 37.3338 20.004C37.3373 18.1528 37.07 16.3111 36.5404 14.5373C36.5138 14.4373 36.4871 14.3306 36.4538 14.2306C35.1458 10.0478 32.4539 6.43437 28.8204 3.98396C28.8173 3.61406 28.8782 3.24641 29.0004 2.89729V2.89062C35.3578 6.23115 39.3377 12.8223 39.3338 20.004Z" fill="#FF6F59" fill-opacity="0.6"></path>
    <path d="M19.9993 39.3385C20.3573 39.3385 20.712 39.3272 21.066 39.3079C10.7758 38.7943 2.69843 30.2975 2.7059 19.9945C2.71338 9.69155 10.8031 1.20652 21.094 0.707875C20.7327 0.684542 20.3667 0.671875 19.9993 0.671875C9.32184 0.671875 0.666016 9.3277 0.666016 20.0052C0.666016 30.6827 9.32184 39.3385 19.9993 39.3385Z" fill="white"></path>
    <path d="M2.05267 25.0827L0.769333 25.4453L0.426667 24.112C0.340667 23.658 0.282667 23.2 0.21 22.7473L0.106667 22.0667L0.0666667 21.3773L0 20H1.33333L1.4 21.286L1.43333 21.9293L1.53133 22.5653C1.598 22.9887 1.65267 23.4153 1.73133 23.8367L2.05267 25.0827Z" fill="white"></path>
    <path d="M0.882899 23.3255C0.514709 23.3274 0.21474 23.0304 0.212899 22.6622C0.211058 22.294 0.508043 21.994 0.876233 21.9922H0.882899C1.25109 21.9922 1.54957 22.2907 1.54957 22.6589C1.54957 23.027 1.25109 23.3255 0.882899 23.3255Z" fill="#475853"></path>
    <path d="M0.666668 20.6686C1.03486 20.6686 1.33333 20.3701 1.33333 20.0019C1.33251 17.9536 1.6704 15.9193 2.33333 13.9812C2.92436 14.874 3.63295 15.683 4.44 16.3866C5.65906 17.7619 6.70055 19.2849 7.54 20.9199C9.20067 23.8446 7.278 23.3592 6.28 24.7132C5.37933 25.9339 6.02333 27.7039 7.24867 28.5799C8.26534 29.2972 9.51 29.5179 10.5293 29.8966C11.0433 30.0866 12.258 30.6346 12.4187 31.6192C12.4345 32.1213 12.4008 32.6237 12.318 33.1192C12.1773 35.0392 13.504 35.9759 15.0873 35.4406C16.6207 34.9212 17.4287 33.4792 18.1227 32.0446C19.93 28.2786 20.8873 26.7166 20.996 24.8906C21.0713 23.5279 20.506 21.8366 19.074 21.1299C17.578 20.3859 15.972 21.0279 14.5873 21.0739C12.1873 21.1739 10.5827 19.2666 11.1333 17.5406C11.4094 16.6971 12.2133 16.1406 13.1 16.1792C14.0573 16.3026 15.2167 17.2306 16.5 16.6999C17.7907 16.1586 17.9513 14.6232 18.3513 13.7059C18.9707 12.2979 20.7993 11.0312 20.6133 9.07922C20.4927 7.81255 19.55 6.92789 19.0893 6.03722C18.3787 4.67655 18.604 3.00388 18.966 1.36588C22.1629 1.18417 25.3524 1.83322 28.224 3.24988C28.1508 3.76086 28.1285 4.27783 28.1573 4.79322C28.2907 9.54122 25.3333 10.1172 25.7213 12.0359C25.966 13.2426 27.468 13.7139 28.5767 13.2159C29.7907 12.6772 30.3347 11.4352 31.296 10.9926C31.1015 11.7712 31.3266 12.595 31.89 13.1666C32.5087 13.7299 33.2947 13.7052 33.8007 13.8966C34.6587 14.2299 34.992 15.4179 34.7653 16.3206C34.0953 18.9872 30.2987 20.0052 30.3147 22.9392C30.3549 23.885 30.7579 24.7789 31.44 25.4352C32.1387 26.1606 32.6687 26.4306 36.4853 28.7452C32.9183 35.4822 25.6105 39.3704 18.0302 38.5645C10.4498 37.7587 4.12288 32.4209 2.052 25.0846C1.95185 24.7302 1.58338 24.5241 1.229 24.6242C0.874618 24.7244 0.66852 25.0928 0.768668 25.4472C3.01576 33.4126 9.93998 39.1688 18.1818 39.9231C26.4236 40.6774 34.2777 36.2737 37.9333 28.8486L37.9373 28.8432L37.9413 28.8332C42.7371 19.0945 38.8834 7.30829 29.2607 2.28388C29.2533 2.28388 29.2487 2.27455 29.2413 2.27122H29.2347C24.3786 -0.260031 18.6967 -0.68801 13.5163 1.08726C8.33593 2.86254 4.1108 6.68557 1.828 11.6632V11.6699C0.622731 14.2822 -0.000969981 17.125 1.13229e-06 20.0019C1.13229e-06 20.1787 0.070239 20.3483 0.195263 20.4733C0.320288 20.5983 0.489857 20.6686 0.666668 20.6686ZM37.0707 27.5406L34.058 25.7132C32.9913 25.0672 31.658 24.2346 31.6487 22.9299C31.638 20.8125 35.2733 19.7739 36.0593 16.6452C36.4313 15.1646 35.8687 13.2659 34.2787 12.6519C33.1453 12.2192 32.108 12.6766 32.8 10.4692C32.8533 10.2997 32.8367 10.116 32.754 9.95882C32.6712 9.80161 32.5292 9.68393 32.3593 9.63188C31.478 9.36522 30.5007 9.70455 29.6047 10.5892C29.1599 11.1395 28.6298 11.6151 28.0347 11.9979C27.7013 12.1492 27.0913 12.0719 27.0293 11.7719C26.8867 11.0726 29.6293 9.41322 29.4907 4.75655C29.4833 4.48055 29.4773 4.20122 29.4907 3.93588C37.6375 8.74356 40.8953 18.8886 37.0707 27.5406ZM17.5793 1.49722C16.9127 4.80722 17.5127 6.15988 18.524 7.63388C19.5653 9.14722 19.6407 9.60788 18.23 11.4626C17.5752 12.2067 17.0935 13.0867 16.8193 14.0392C16.302 15.6392 16.0407 15.7852 14.5707 15.2306C14.1522 15.0547 13.7146 14.9287 13.2667 14.8552C11.7399 14.731 10.3298 15.6778 9.86667 17.1379C9.04 19.7239 11.2667 22.5166 14.636 22.4046C16.0567 22.3572 17.4593 21.8119 18.4867 22.3226C19.3232 22.8585 19.7811 23.8244 19.6667 24.8112C19.5807 26.2526 18.8727 27.3959 16.9227 31.4632C16.3527 32.6412 15.7087 33.8212 14.6613 34.1752C14.4145 34.284 14.132 34.2772 13.8907 34.1566C13.346 33.7386 13.904 32.4532 13.7367 31.4032C13.5427 30.2212 12.5427 29.2152 10.994 28.6439C9.934 28.2486 8.83267 28.0619 8.022 27.4899C7.412 27.0546 6.92533 26.0846 7.35533 25.5032C7.93 24.7206 10.9553 24.2326 8.702 20.2612C7.80967 18.5275 6.70007 16.9145 5.4 15.4612C4.19533 14.2159 3.22467 13.6166 3.13333 12.0259C5.85262 6.29447 11.2906 2.33112 17.5793 1.49722Z" fill="#475853"></path>
    <path d="M23.6729 17.032C23.9771 17.2563 24.2103 17.5634 24.3449 17.9166C24.5932 18.6186 25.1532 19.1656 25.8609 19.3973C27.4462 19.7633 29.6489 17.276 28.4156 15.5746C28.0006 15.0305 27.329 14.7463 26.6496 14.8273C26.1002 14.8233 26.1002 14.8193 25.7702 14.5333C25.5948 14.3685 25.3985 14.2275 25.1862 14.114C24.6178 13.8098 23.9233 13.8708 23.4166 14.2693C22.9099 14.6679 22.6871 15.3286 22.8489 15.9526C23.0078 16.3876 23.2952 16.764 23.6729 17.032ZM24.2269 15.324C24.5982 15.0573 24.9029 15.7026 25.5469 15.9906C25.9924 16.1408 26.4635 16.2 26.9322 16.1646C27.3649 16.1873 27.5149 16.5433 27.4042 16.9493C27.2842 17.3893 26.5582 18.1953 26.1589 18.0986C25.8876 18.036 25.6516 17.5473 25.5356 17.3166C25.3204 16.8031 24.9758 16.3541 24.5356 16.0133C24.3687 15.9003 24.23 15.7504 24.1302 15.5753C24.1138 15.4801 24.1509 15.3836 24.2269 15.324Z" fill="#475853"></path>
  </g>
  <defs>
    <clipPath id="clip0_2176_1596">
      <rect width="40" height="40" fill="white"></rect>
    </clipPath>
  </defs>
</svg>
