<?xml version="1.0" encoding="UTF-8"?>
<svg xmlns="http://www.w3.org/2000/svg" width="80" height="80" viewBox="0 0 80 80" fill="none">
  <path d="M53.3846 46.3157C53.2686 46.4318 53.1308 46.5239 52.9791 46.5867C52.8275 46.6496 52.665 46.6819 52.5008 46.6819C52.3367 46.6819 52.1741 46.6496 52.0225 46.5867C51.8708 46.5239 51.7331 46.4318 51.617 46.3157L42.7779 37.4766L37.4746 42.7805L46.3131 51.6197C46.4292 51.7357 46.5213 51.8735 46.5841 52.0252C46.647 52.1768 46.6793 52.3393 46.6793 52.5035C46.6793 52.6676 46.647 52.8302 46.5841 52.9818C46.5213 53.1335 46.4292 53.2712 46.3131 53.3873L37.4746 62.2263L42.778 67.5303L51.6171 58.6912C51.7331 58.5751 51.8709 58.483 52.0226 58.4202C52.1742 58.3573 52.3367 58.325 52.5009 58.325C52.665 58.325 52.8276 58.3573 52.9792 58.4202C53.1309 58.483 53.2686 58.5751 53.3847 58.6912L62.2238 67.5303L67.5277 62.2263L58.6886 53.3872C58.5725 53.2712 58.4804 53.1334 58.4176 52.9817C58.3547 52.8301 58.3224 52.6676 58.3224 52.5034C58.3224 52.3393 58.3547 52.1767 58.4176 52.0251C58.4804 51.8734 58.5725 51.7357 58.6886 51.6196L67.5277 42.7805L62.2238 37.4766L53.3846 46.3157Z" fill="#98CDBD"></path>
  <path d="M72.5 26.25H32.5C30.843 26.2519 29.2544 26.911 28.0827 28.0827C26.911 29.2544 26.2519 30.843 26.25 32.5V72.5C26.2519 74.157 26.911 75.7456 28.0827 76.9173C29.2544 78.0889 30.843 78.7481 32.5 78.75H72.5C74.157 78.7481 75.7456 78.0889 76.9173 76.9173C78.0889 75.7456 78.7481 74.157 78.75 72.5V32.5C78.7481 30.843 78.0889 29.2544 76.9173 28.0827C75.7456 26.911 74.157 26.2519 72.5 26.25ZM70.1782 61.3391C70.2943 61.4552 70.3864 61.5929 70.4493 61.7446C70.5121 61.8962 70.5444 62.0588 70.5444 62.2229C70.5444 62.387 70.5121 62.5496 70.4493 62.7012C70.3864 62.8529 70.2943 62.9907 70.1782 63.1067L63.1067 70.1782C62.9907 70.2943 62.8529 70.3864 62.7012 70.4493C62.5496 70.5121 62.387 70.5444 62.2229 70.5444C62.0588 70.5444 61.8962 70.5121 61.7446 70.4493C61.5929 70.3864 61.4552 70.2943 61.3391 70.1782L52.5 61.3391L43.6609 70.1782C43.5448 70.2943 43.4071 70.3864 43.2554 70.4492C43.1038 70.512 42.9412 70.5443 42.7771 70.5443C42.613 70.5443 42.4504 70.512 42.2988 70.4492C42.1471 70.3864 42.0094 70.2943 41.8933 70.1782L34.8224 63.1067C34.7063 62.9907 34.6142 62.8529 34.5514 62.7012C34.4885 62.5496 34.4562 62.387 34.4562 62.2229C34.4562 62.0588 34.4885 61.8962 34.5514 61.7446C34.6142 61.5929 34.7063 61.4552 34.8224 61.3391L43.6609 52.5L34.8224 43.6609C34.7063 43.5448 34.6142 43.4071 34.5514 43.2554C34.4885 43.1038 34.4562 42.9412 34.4562 42.7771C34.4562 42.613 34.4885 42.4504 34.5514 42.2988C34.6142 42.1471 34.7063 42.0093 34.8224 41.8933L41.8933 34.8218C42.1322 34.596 42.4484 34.4702 42.7771 34.4702C43.1058 34.4702 43.422 34.596 43.6609 34.8218L52.5 43.6609L61.3391 34.8218C61.4552 34.7057 61.5929 34.6136 61.7446 34.5507C61.8962 34.4879 62.0588 34.4556 62.2229 34.4556C62.387 34.4556 62.5496 34.4879 62.7012 34.5507C62.8529 34.6136 62.9907 34.7057 63.1067 34.8218L70.1782 41.8933C70.2943 42.0093 70.3864 42.1471 70.4493 42.2988C70.5121 42.4504 70.5444 42.613 70.5444 42.7771C70.5444 42.9412 70.5121 43.1038 70.4493 43.2554C70.3864 43.4071 70.2943 43.5448 70.1782 43.6609L61.3391 52.5L70.1782 61.3391Z" fill="#98CDBD"></path>
  <path d="M32.5 1.25C26.3193 1.25 20.2775 3.08278 15.1384 6.51657C9.99941 9.95037 5.99402 14.831 3.62878 20.5411C1.26354 26.2513 0.644686 32.5347 1.85047 38.5966C3.05626 44.6585 6.03254 50.2267 10.4029 54.5971C14.7733 58.9675 20.3415 61.9437 26.4034 63.1495C32.4653 64.3553 38.7487 63.7365 44.4589 61.3712C50.1691 59.006 55.0496 55.0006 58.4834 49.8616C61.9172 44.7225 63.75 38.6807 63.75 32.5C63.7407 24.2148 60.4453 16.2717 54.5868 10.4132C48.7283 4.55471 40.7852 1.25932 32.5 1.25ZM32.5 61.25C26.8138 61.25 21.2553 59.5638 16.5274 56.4048C11.7995 53.2457 8.1145 48.7555 5.93848 43.5022C3.76246 38.2488 3.19311 32.4681 4.30244 26.8912C5.41176 21.3142 8.14993 16.1914 12.1707 12.1707C16.1915 8.14992 21.3142 5.41175 26.8912 4.30242C32.4681 3.1931 38.2488 3.76244 43.5022 5.93846C48.7555 8.11448 53.2457 11.7994 56.4048 16.5274C59.5639 21.2553 61.25 26.8138 61.25 32.5C61.2415 40.1223 58.2097 47.43 52.8199 52.8199C47.4301 58.2097 40.1224 61.2414 32.5 61.25Z" fill="#2D3734"></path>
  <path d="M32.5 7.5C27.5555 7.5 22.722 8.96622 18.6108 11.7133C14.4995 14.4603 11.2952 18.3648 9.40302 22.9329C7.51083 27.5011 7.01575 32.5277 7.98038 37.3773C8.94501 42.2268 11.326 46.6814 14.8223 50.1777C18.3187 53.674 22.7732 56.055 27.6228 57.0196C32.4723 57.9843 37.4989 57.4892 42.0671 55.597C46.6353 53.7048 50.5397 50.5005 53.2867 46.3893C56.0338 42.278 57.5 37.4445 57.5 32.5C57.4925 25.8719 54.8562 19.5174 50.1694 14.8306C45.4826 10.1438 39.1281 7.50748 32.5 7.5ZM32.5 55C28.0499 55 23.6998 53.6804 19.9997 51.2081C16.2996 48.7357 13.4157 45.2217 11.7127 41.1104C10.0098 36.999 9.56418 32.475 10.4323 28.1105C11.3005 23.7459 13.4434 19.7368 16.5901 16.5901C19.7368 13.4434 23.7459 11.3005 28.1105 10.4323C32.4751 9.56416 36.9991 10.0097 41.1104 11.7127C45.2217 13.4157 48.7357 16.2996 51.2081 19.9997C53.6804 23.6998 55 28.0499 55 32.5C54.9932 38.4653 52.6205 44.1843 48.4024 48.4024C44.1843 52.6205 38.4653 54.9932 32.5 55Z" fill="#2D3734"></path>
  <path d="M35.5319 31.1768C34.8179 30.9241 34.1831 30.6873 33.5891 30.4576V20.9701C34.7235 21.1064 35.7969 21.5582 36.6873 22.2741C36.9321 22.4958 37.2547 22.6116 37.5846 22.5962C37.9145 22.5809 38.2249 22.4355 38.448 22.192C38.6711 21.9485 38.7888 21.6266 38.7753 21.2966C38.7618 20.9666 38.6183 20.6554 38.3761 20.4309C37.0153 19.3071 35.3468 18.6206 33.5891 18.4611V16.25C33.5891 15.9185 33.4574 15.6005 33.223 15.3661C32.9886 15.1317 32.6707 15 32.3391 15C32.0076 15 31.6897 15.1317 31.4552 15.3661C31.2208 15.6005 31.0891 15.9185 31.0891 16.25V18.5661C29.6504 18.7511 28.309 19.393 27.2624 20.3974C26.2157 21.4018 25.5191 22.7156 25.2749 24.1455C25.0312 25.1941 25.0798 26.2894 25.4156 27.3123C25.7514 28.3351 26.3614 29.2462 27.1792 29.9463C28.3829 30.8421 29.697 31.579 31.0891 32.1389V43.7955C29.3771 43.7961 27.7112 43.2403 26.3424 42.2119C26.2051 42.122 26.0513 42.0601 25.89 42.0297C25.7287 41.9992 25.563 42.0009 25.4023 42.0345C25.2416 42.0681 25.0891 42.133 24.9535 42.2256C24.818 42.3181 24.7019 42.4364 24.6121 42.5738C24.5222 42.7112 24.4603 42.8649 24.4299 43.0262C24.3994 43.1875 24.4011 43.3533 24.4347 43.5139C24.4683 43.6746 24.5332 43.8271 24.6258 43.9627C24.7183 44.0983 24.8366 44.2143 24.974 44.3042C26.7464 45.6059 28.89 46.3041 31.0891 46.2959V48.75C31.0891 49.0815 31.2208 49.3995 31.4552 49.6339C31.6897 49.8683 32.0076 50 32.3391 50C32.6707 50 32.9886 49.8683 33.223 49.6339C33.4574 49.3995 33.5891 49.0815 33.5891 48.75V46.2059C35.3125 45.9473 36.909 45.1473 38.1477 43.9215C39.3865 42.6957 40.2033 41.1078 40.48 39.3872C40.8121 37.6494 40.4906 35.8502 39.5774 34.3349C38.6642 32.8196 37.2235 31.695 35.5319 31.1768ZM31.0891 29.3922C30.2517 29.007 29.458 28.5331 28.7216 27.9785C28.2668 27.5591 27.9344 27.024 27.76 26.4304C27.5857 25.8368 27.5758 25.2069 27.7316 24.6081C27.8682 23.753 28.2631 22.9601 28.8632 22.3357C29.4633 21.7114 30.24 21.2855 31.0891 21.1152V29.3922ZM38.0148 38.9734C37.8302 40.1083 37.31 41.162 36.5212 41.9986C35.7324 42.8353 34.7112 43.4166 33.5891 43.6677V33.1298C33.9462 33.2619 34.3085 33.3947 34.6988 33.5327C35.8312 33.8615 36.7995 34.6022 37.4132 35.6091C38.0269 36.6161 38.2415 37.8162 38.0148 38.9734Z" fill="#2D3734"></path>
</svg>
