<?xml version="1.0" encoding="UTF-8"?>
<svg xmlns="http://www.w3.org/2000/svg" width="80" height="80" viewBox="0 0 80 80" fill="none">
  <path d="M75 38.125H63.75V34.375C63.75 33.3804 63.3549 32.4266 62.6516 31.7233C61.9484 31.0201 60.9946 30.625 60 30.625H45C44.0054 30.625 43.0516 31.0201 42.3484 31.7233C41.6451 32.4266 41.25 33.3804 41.25 34.375V38.125H26.25C25.2554 38.125 24.3016 38.5201 23.5983 39.2233C22.8951 39.9266 22.5 40.8804 22.5 41.875V58.125H33.75V51.875C33.75 51.5435 33.8817 51.2255 34.1161 50.9911C34.3505 50.7567 34.6685 50.625 35 50.625C35.3315 50.625 35.6495 50.7567 35.8839 50.9911C36.1183 51.2255 36.25 51.5435 36.25 51.875V58.125H65V51.875C65 51.5435 65.1317 51.2255 65.3661 50.9911C65.6005 50.7567 65.9185 50.625 66.25 50.625C66.5815 50.625 66.8995 50.7567 67.1339 50.9911C67.3683 51.2255 67.5 51.5435 67.5 51.875V58.125H78.75V41.875C78.75 40.8804 78.3549 39.9266 77.6516 39.2233C76.9484 38.5201 75.9946 38.125 75 38.125ZM43.75 35.625H61.25V38.125H43.75V35.625Z" fill="#98CDBD"></path>
  <path d="M67.5 60.625V64.375H68.75C69.0815 64.375 69.3995 64.5067 69.6339 64.7411C69.8683 64.9755 70 65.2935 70 65.625C70 65.9565 69.8683 66.2745 69.6339 66.5089C69.3995 66.7433 69.0815 66.875 68.75 66.875H67.5V68.125C67.5 68.4565 67.3683 68.7745 67.1339 69.0089C66.8995 69.2433 66.5815 69.375 66.25 69.375C65.9185 69.375 65.6005 69.2433 65.3661 69.0089C65.1317 68.7745 65 68.4565 65 68.125V66.875H63.75C63.4185 66.875 63.1005 66.7433 62.8661 66.5089C62.6317 66.2745 62.5 65.9565 62.5 65.625C62.5 65.2935 62.6317 64.9755 62.8661 64.7411C63.1005 64.5067 63.4185 64.375 63.75 64.375H65V60.625H36.25V64.375H37.5C37.8315 64.375 38.1495 64.5067 38.3839 64.7411C38.6183 64.9755 38.75 65.2935 38.75 65.625C38.75 65.9565 38.6183 66.2745 38.3839 66.5089C38.1495 66.7433 37.8315 66.875 37.5 66.875H36.25V68.125C36.25 68.4565 36.1183 68.7745 35.8839 69.0089C35.6495 69.2433 35.3315 69.375 35 69.375C34.6685 69.375 34.3505 69.2433 34.1161 69.0089C33.8817 68.7745 33.75 68.4565 33.75 68.125V66.875H32.5C32.1685 66.875 31.8505 66.7433 31.6161 66.5089C31.3817 66.2745 31.25 65.9565 31.25 65.625C31.25 65.2935 31.3817 64.9755 31.6161 64.7411C31.8505 64.5067 32.1685 64.375 32.5 64.375H33.75V60.625H22.5V75C22.5 75.9946 22.8951 76.9484 23.5983 77.6516C24.3016 78.3549 25.2554 78.75 26.25 78.75H75C75.9946 78.75 76.9484 78.3549 77.6516 77.6516C78.3549 76.9484 78.75 75.9946 78.75 75V60.625H67.5Z" fill="#98CDBD"></path>
  <path d="M32.5 15.625C30.7694 15.625 29.0777 16.1382 27.6388 17.0996C26.1998 18.0611 25.0783 19.4277 24.4161 21.0265C23.7538 22.6254 23.5805 24.3847 23.9181 26.082C24.2558 27.7794 25.0891 29.3385 26.3128 30.5622C27.5365 31.7859 29.0956 32.6192 30.793 32.9569C32.4903 33.2945 34.2496 33.1212 35.8485 32.4589C37.4473 31.7967 38.8139 30.6752 39.7754 29.2362C40.7368 27.7973 41.25 26.1056 41.25 24.375C41.2474 22.0552 40.3246 19.8311 38.6843 18.1907C37.0439 16.5504 34.8198 15.6276 32.5 15.625ZM32.5 30.625C31.2639 30.625 30.0555 30.2584 29.0277 29.5717C27.9999 28.8849 27.1988 27.9088 26.7258 26.7668C26.2527 25.6247 26.1289 24.3681 26.3701 23.1557C26.6113 21.9433 27.2065 20.8297 28.0806 19.9556C28.9547 19.0815 30.0683 18.4862 31.2807 18.2451C32.4931 18.0039 33.7497 18.1277 34.8918 18.6008C36.0338 19.0738 37.0099 19.8749 37.6967 20.9027C38.3834 21.9305 38.75 23.1389 38.75 24.375C38.748 26.032 38.0889 27.6206 36.9172 28.7922C35.7456 29.9639 34.157 30.623 32.5 30.625Z" fill="#2D3734"></path>
  <path d="M55.001 45.6285C53.5297 45.6324 52.0831 46.0065 50.7943 46.7162C49.5055 47.4259 48.4159 48.4485 47.626 49.6897C46.9794 49.4833 46.3047 49.3783 45.626 49.3785C44.4476 49.3806 43.2895 49.6855 42.2629 50.264C41.2363 50.8426 40.3756 51.6753 39.7635 52.6822L38.0547 48.1285H38.456C39.1528 48.131 39.8365 47.9382 40.4293 47.5719C41.0221 47.2056 41.5003 46.6804 41.8097 46.056L44.5235 40.6285H45.001C45.9955 40.6285 46.9494 40.2334 47.6526 39.5301C48.3559 38.8269 48.751 37.873 48.751 36.8785H56.251C57.2455 36.8785 58.1994 36.4834 58.9026 35.7801C59.6059 35.0769 60.001 34.123 60.001 33.1285C60.0028 31.3845 59.573 29.6672 58.7502 28.1296C57.9273 26.592 56.7368 25.2819 55.2847 24.316L46.8397 18.691C44.5695 12.0448 40.3586 6.23199 34.751 2.00347C34.1007 1.51931 33.3117 1.25781 32.501 1.25781C31.6903 1.25781 30.9012 1.51931 30.251 2.00347C24.6442 6.23011 20.4333 12.0407 18.1622 18.6847L9.71723 24.3097C8.26431 25.2762 7.07325 26.5873 6.25031 28.1261C5.42738 29.6649 4.99817 31.3835 5.00098 33.1285C5.00098 34.123 5.39606 35.0769 6.09933 35.7801C6.80259 36.4834 7.75641 36.8785 8.75098 36.8785H16.251C16.251 37.873 16.6461 38.8269 17.3493 39.5301C18.0526 40.2334 19.0064 40.6285 20.001 40.6285H20.4785L23.1922 46.056C23.5016 46.6804 23.9799 47.2056 24.5727 47.5719C25.1655 47.9382 25.8491 48.131 26.546 48.1285H26.9472L25.2397 52.6822C24.6275 51.6751 23.7666 50.8423 22.7398 50.2637C21.7129 49.6852 20.5546 49.3803 19.376 49.3785C18.6972 49.3783 18.0226 49.4833 17.376 49.6897C16.561 48.4056 15.4253 47.3561 14.081 46.6446C12.7367 45.9332 11.2302 45.5845 9.71002 45.6329C8.18985 45.6813 6.70855 46.125 5.41219 46.9205C4.11583 47.7159 3.04919 48.8355 2.31746 50.1688C1.58574 51.5022 1.2142 53.0032 1.23949 54.524C1.26478 56.0447 1.68603 57.5326 2.46168 58.8409C3.23734 60.1491 4.34061 61.2326 5.66271 61.9845C6.9848 62.7364 8.48004 63.1307 10.001 63.1285H55.001C57.3216 63.1285 59.5472 62.2066 61.1882 60.5657C62.8291 58.9247 63.751 56.6991 63.751 54.3785C63.751 52.0578 62.8291 49.8322 61.1882 48.1913C59.5472 46.5503 57.3216 45.6285 55.001 45.6285ZM53.8972 26.391C55.0075 27.1291 55.9177 28.1308 56.5466 29.3064C57.1754 30.4821 57.5033 31.7952 57.501 33.1285C57.501 33.46 57.3693 33.7779 57.1349 34.0124C56.9004 34.2468 56.5825 34.3785 56.251 34.3785H48.751V30.0035C48.747 27.4424 48.459 24.8898 47.8922 22.3922L53.8972 26.391ZM8.75098 34.3785C8.41946 34.3785 8.10151 34.2468 7.86709 34.0124C7.63267 33.7779 7.50098 33.46 7.50098 33.1285C7.49865 31.7952 7.82655 30.4821 8.45539 29.3064C9.08423 28.1308 9.99444 27.1291 11.1047 26.391L17.1047 22.391C16.5396 24.8891 16.2532 27.4422 16.251 30.0035V34.3785H8.75098ZM18.751 36.8785V30.0035C18.7627 24.9601 19.9426 19.988 22.1981 15.477C24.4536 10.9661 27.7233 7.03891 31.751 4.00347C31.9673 3.84119 32.2305 3.75347 32.501 3.75347C32.7714 3.75347 33.0346 3.84119 33.251 4.00347C37.2786 7.03891 40.5484 10.9661 42.8038 15.477C45.0593 19.988 46.2392 24.9601 46.251 30.0035V36.8785C46.251 37.21 46.1193 37.5279 45.8849 37.7624C45.6504 37.9968 45.3325 38.1285 45.001 38.1285H20.001C19.6695 38.1285 19.3515 37.9968 19.1171 37.7624C18.8827 37.5279 18.751 37.21 18.751 36.8785ZM25.4285 44.9385L23.2735 40.6285H41.7285L39.5735 44.9385C39.4696 45.1458 39.31 45.3202 39.1126 45.4421C38.9153 45.5639 38.6879 45.6285 38.456 45.6285H26.546C26.3135 45.628 26.0858 45.5627 25.8884 45.4399C25.691 45.3172 25.5317 45.1418 25.4285 44.9335V44.9385ZM55.001 60.6285H10.001C8.87811 60.6295 7.77571 60.328 6.80966 59.7556C5.84361 59.1833 5.04959 58.3612 4.51107 57.3759C3.97255 56.3906 3.70942 55.2784 3.74934 54.1563C3.78926 53.0341 4.13075 51.9434 4.73792 50.9989C5.3451 50.0543 6.19552 49.2908 7.1998 48.7886C8.20408 48.2863 9.32512 48.0639 10.4451 48.1447C11.565 48.2255 12.6425 48.6065 13.5643 49.2477C14.4861 49.8889 15.2182 50.7665 15.6835 51.7885C15.7536 51.9424 15.8542 52.0804 15.9792 52.1943C16.1042 52.3082 16.251 52.3956 16.4108 52.4511C16.5705 52.5066 16.7399 52.5291 16.9086 52.5173C17.0773 52.5054 17.2418 52.4595 17.3922 52.3822C18.0038 52.0589 18.6842 51.8874 19.376 51.8822C20.5357 51.8822 21.6479 52.3426 22.4682 53.1623C23.2886 53.982 23.75 55.0938 23.751 56.2535C23.7584 56.3561 23.779 56.4573 23.8122 56.5547C23.7258 56.8634 23.7622 57.1936 23.9138 57.4761C24.0653 57.7586 24.3203 57.9715 24.6254 58.0702C24.9304 58.1689 25.2618 58.1458 25.5501 58.0057C25.8384 57.8655 26.0614 57.6193 26.1722 57.3185L29.6172 48.1285H35.3847L38.8297 57.3185C38.9406 57.6193 39.1635 57.8655 39.4519 58.0057C39.7402 58.1458 40.0716 58.1689 40.3766 58.0702C40.6816 57.9715 40.9366 57.7586 41.0882 57.4761C41.2397 57.1936 41.2761 56.8634 41.1897 56.5547C41.2229 56.4573 41.2435 56.3561 41.251 56.2535C41.251 55.0931 41.7119 53.9803 42.5324 53.1599C43.3529 52.3394 44.4657 51.8785 45.626 51.8785C46.3181 51.8838 46.9989 52.0553 47.611 52.3785C47.7614 52.4557 47.9259 52.5017 48.0946 52.5135C48.2633 52.5254 48.4327 52.5029 48.5924 52.4473C48.7522 52.3918 48.899 52.3045 49.024 52.1906C49.149 52.0767 49.2496 51.9386 49.3197 51.7847C49.7856 50.7633 50.5181 49.8862 51.4401 49.2456C52.3621 48.6051 53.4396 48.2247 54.5594 48.1445C55.6792 48.0642 56.7999 48.2871 57.8038 48.7896C58.8078 49.2922 59.6578 50.0559 60.2646 51.0004C60.8714 51.945 61.2125 53.0356 61.2522 54.1575C61.2919 55.2795 61.0286 56.3914 60.4901 57.3765C59.9516 58.3616 59.1576 59.1834 58.1917 59.7557C57.2258 60.3279 56.1236 60.6294 55.001 60.6285Z" fill="#2D3734"></path>
</svg>
